  0
SECTION
  2
HEADER
  9
$ACADVER
  1
AC1014
  9
$ACADMAINTVER
 70
     9
  9
$DWGCODEPAGE
  3
ANSI_1252
  9
$INSBASE
 10
0.0
 20
0.0
 30
0.0
  9
$EXTMIN
 10
1.000000000000000E+20
 20
1.000000000000000E+20
 30
1.000000000000000E+20
  9
$EXTMAX
 10
-1.000000000000000E+20
 20
-1.000000000000000E+20
 30
-1.000000000000000E+20
  9
$LIMMIN
 10
0.0
 20
0.0
  9
$LIMMAX
 10
12.0
 20
9.0
  9
$ORTHOMODE
 70
     0
  9
$REGENMODE
 70
     1
  9
$FILLMODE
 70
     1
  9
$QTEXTMODE
 70
     0
  9
$MIRRTEXT
 70
     1
  9
$DRAGMODE
 70
     2
  9
$LTSCALE
 40
1.0
  9
$OSMODE
 70
    37
  9
$ATTMODE
 70
     1
  9
$TEXTSIZE
 40
0.2
  9
$TRACEWID
 40
0.05
  9
$TEXTSTYLE
  7
STANDARD
  9
$CLAYER
  8
0
  9
$CELTYPE
  6
BYLAYER
  9
$CECOLOR
 62
   256
  9
$CELTSCALE
 40
1.0
  9
$DELOBJ
 70
     1
  9
$DISPSILH
 70
     0
  9
$DIMSCALE
 40
1.0
  9
$DIMASZ
 40
0.1
  9
$DIMEXO
 40
0.2
  9
$DIMDLI
 40
0.38
  9
$DIMRND
 40
0.0
  9
$DIMDLE
 40
0.1
  9
$DIMEXE
 40
0.1
  9
$DIMTP
 40
0.0
  9
$DIMTM
 40
0.0
  9
$DIMTXT
 40
0.18
  9
$DIMCEN
 40
0.09
  9
$DIMTSZ
 40
0.0
  9
$DIMTOL
 70
     0
  9
$DIMLIM
 70
     0
  9
$DIMTIH
 70
     0
  9
$DIMTOH
 70
     0
  9
$DIMSE1
 70
     0
  9
$DIMSE2
 70
     0
  9
$DIMTAD
 70
     1
  9
$DIMZIN
 70
     8
  9
$DIMBLK
  1
DOT
  9
$DIMASO
 70
     1
  9
$DIMSHO
 70
     1
  9
$DIMPOST
  1

  9
$DIMAPOST
  1

  9
$DIMALT
 70
     0
  9
$DIMALTD
 70
     2
  9
$DIMALTF
 40
25.4
  9
$DIMLFAC
 40
1.0
  9
$DIMTOFL
 70
     0
  9
$DIMTVP
 40
0.0
  9
$DIMTIX
 70
     0
  9
$DIMSOXD
 70
     0
  9
$DIMSAH
 70
     0
  9
$DIMBLK1
  1

  9
$DIMBLK2
  1

  9
$DIMSTYLE
  2
STANDARD
  9
$DIMCLRD
 70
     0
  9
$DIMCLRE
 70
     0
  9
$DIMCLRT
 70
     0
  9
$DIMTFAC
 40
1.0
  9
$DIMGAP
 40
0.09
  9
$DIMJUST
 70
     0
  9
$DIMSD1
 70
     0
  9
$DIMSD2
 70
     0
  9
$DIMTOLJ
 70
     1
  9
$DIMTZIN
 70
     0
  9
$DIMALTZ
 70
     0
  9
$DIMALTTZ
 70
     0
  9
$DIMFIT
 70
     3
  9
$DIMUPT
 70
     0
  9
$DIMUNIT
 70
     2
  9
$DIMDEC
 70
     1
  9
$DIMTDEC
 70
     4
  9
$DIMALTU
 70
     2
  9
$DIMALTTD
 70
     2
  9
$DIMTXSTY
  7
STANDARD
  9
$DIMAUNIT
 70
     0
  9
$LUNITS
 70
     2
  9
$LUPREC
 70
     4
  9
$SKETCHINC
 40
0.1
  9
$FILLETRAD
 40
0.5
  9
$AUNITS
 70
     0
  9
$AUPREC
 70
     0
  9
$MENU
  1
.
  9
$ELEVATION
 40
0.0
  9
$PELEVATION
 40
0.0
  9
$THICKNESS
 40
0.0
  9
$LIMCHECK
 70
     0
  9
$CHAMFERA
 40
0.5
  9
$CHAMFERB
 40
0.5
  9
$CHAMFERC
 40
1.0
  9
$CHAMFERD
 40
0.0
  9
$SKPOLY
 70
     0
  9
$TDCREATE
 40
2456232.457173415
  9
$TDUPDATE
 40
2456232.457173426
  9
$TDINDWG
 40
0.0000000116
  9
$TDUSRTIMER
 40
0.0000000116
  9
$USRTIMER
 70
     1
  9
$ANGBASE
 50
0.0
  9
$ANGDIR
 70
     0
  9
$PDMODE
 70
     0
  9
$PDSIZE
 40
0.0
  9
$PLINEWID
 40
0.0
  9
$COORDS
 70
     1
  9
$SPLFRAME
 70
     0
  9
$SPLINETYPE
 70
     6
  9
$SPLINESEGS
 70
     8
  9
$ATTDIA
 70
     0
  9
$ATTREQ
 70
     1
  9
$HANDLING
 70
     1
  9
$HANDSEED
  5
182
  9
$SURFTAB1
 70
     6
  9
$SURFTAB2
 70
     6
  9
$SURFTYPE
 70
     6
  9
$SURFU
 70
     6
  9
$SURFV
 70
     6
  9
$UCSNAME
  2

  9
$UCSORG
 10
0.0
 20
0.0
 30
0.0
  9
$UCSXDIR
 10
1.0
 20
0.0
 30
0.0
  9
$UCSYDIR
 10
0.0
 20
1.0
 30
0.0
  9
$PUCSNAME
  2

  9
$PUCSORG
 10
0.0
 20
0.0
 30
0.0
  9
$PUCSXDIR
 10
1.0
 20
0.0
 30
0.0
  9
$PUCSYDIR
 10
0.0
 20
1.0
 30
0.0
  9
$USERI1
 70
     0
  9
$USERI2
 70
     0
  9
$USERI3
 70
     0
  9
$USERI4
 70
     0
  9
$USERI5
 70
     0
  9
$USERR1
 40
0.0
  9
$USERR2
 40
0.0
  9
$USERR3
 40
0.0
  9
$USERR4
 40
0.0
  9
$USERR5
 40
0.0
  9
$WORLDVIEW
 70
     1
  9
$SHADEDGE
 70
     3
  9
$SHADEDIF
 70
    70
  9
$TILEMODE
 70
     1
  9
$MAXACTVP
 70
    64
  9
$PINSBASE
 10
0.0
 20
0.0
 30
0.0
  9
$PLIMCHECK
 70
     0
  9
$PEXTMIN
 10
1.000000000000000E+20
 20
1.000000000000000E+20
 30
1.000000000000000E+20
  9
$PEXTMAX
 10
-1.000000000000000E+20
 20
-1.000000000000000E+20
 30
-1.000000000000000E+20
  9
$PLIMMIN
 10
0.0
 20
0.0
  9
$PLIMMAX
 10
12.0
 20
9.0
  9
$UNITMODE
 70
     0
  9
$VISRETAIN
 70
     1
  9
$PLINEGEN
 70
     0
  9
$PSLTSCALE
 70
     1
  9
$TREEDEPTH
 70
  3020
  9
$PICKSTYLE
 70
     1
  9
$CMLSTYLE
  2
STANDARD
  9
$CMLJUST
 70
     0
  9
$CMLSCALE
 40
1.0
  9
$PROXYGRAPHICS
 70
     1
  9
$MEASUREMENT
 70
     0
  0
ENDSEC
  0
SECTION
  2
CLASSES
  0
CLASS
  1
ACDBDICTIONARYWDFLT
  2
AcDbDictionaryWithDefault
  3
ObjectDBX Classes
 90
        0
280
     0
281
     0
  0
CLASS
  1
VISUALSTYLE
  2
AcDbVisualStyle
  3
ObjectDBX Classes
 90
     4095
280
     0
281
     0
  0
CLASS
  1
MATERIAL
  2
AcDbMaterial
  3
ObjectDBX Classes
 90
     1153
280
     0
281
     0
  0
CLASS
  1
WIPEOUTVARIABLES
  2
AcDbWipeoutVariables
  3
WipeOut|AutoCAD Express Tool|expresstools@autodesk.com
 90
        0
280
     0
281
     0
  0
CLASS
  1
SCALE
  2
AcDbScale
  3
ObjectDBX Classes
 90
     1153
280
     0
281
     0
  0
CLASS
  1
DICTIONARYVAR
  2
AcDbDictionaryVar
  3
ObjectDBX Classes
 90
        0
280
     0
281
     0
  0
CLASS
  1
XRECORD
  2
AcDbXrecord
  3
AutoCAD 2000
 90
        0
280
     0
281
     0
  0
CLASS
  1
LWPOLYLINE
  2
AcDbPolyline
  3
AutoCAD 2000
 90
        0
280
     0
281
     1
  0
CLASS
  1
HATCH
  2
AcDbHatch
  3
AutoCAD 2000
 90
        0
280
     0
281
     1
  0
CLASS
  1
ACDBPLACEHOLDER
  2
AcDbPlaceHolder
  3
ObjectDBX Classes
 90
        0
280
     0
281
     0
  0
CLASS
  1
LAYOUT
  2
AcDbLayout
  3
ObjectDBX Classes
 90
        0
280
     0
281
     0
  0
ENDSEC
  0
SECTION
  2
TABLES
  0
TABLE
  2
VPORT
  5
8
330
0
100
AcDbSymbolTable
 70
     1
  0
VPORT
  5
29
330
8
100
AcDbSymbolTableRecord
100
AcDbViewportTableRecord
  2
*ACTIVE
 70
     0
 10
0.0
 20
0.0
 11
1.0
 21
1.0
 12
0.1
 22
0.1
 13
0.0
 23
0.0
 14
0.5
 24
0.5
 15
0.5
 25
0.5
 16
0.0
 26
0.0
 36
1.0
 17
0.0
 27
0.0
 37
0.0
 40
0.2
 41
1.0
 42
50.0
 43
0.0
 44
0.0
 50
0.0
 51
0.0
 71
     0
 72
   100
 73
     1
 74
     3
 75
     0
 76
     0
 77
     0
 78
     0
  0
ENDTAB
  0
TABLE
  2
LTYPE
  5
5
330
0
100
AcDbSymbolTable
 70
     5
  0
LTYPE
  5
14
330
5
100
AcDbSymbolTableRecord
100
AcDbLinetypeTableRecord
  2
BYBLOCK
 70
     0
  3

 72
    65
 73
     0
 40
0.0
  0
LTYPE
  5
15
330
5
100
AcDbSymbolTableRecord
100
AcDbLinetypeTableRecord
  2
BYLAYER
 70
     0
  3

 72
    65
 73
     0
 40
0.0
  0
LTYPE
  5
16
330
5
100
AcDbSymbolTableRecord
100
AcDbLinetypeTableRecord
  2
CONTINUOUS
 70
     0
  3
Solid line
 72
    65
 73
     0
 40
0.0
  0
LTYPE
  5
48
330
5
100
AcDbSymbolTableRecord
100
AcDbLinetypeTableRecord
  2
DASHED
 70
     0
  3
__ __ __ __ __ __ __ __ __ __ __ __ __ __ __ __
 72
    65
 73
     2
 40
0.75
 49
0.5
 74
     0
 49
-0.25
 74
     0
  0
LTYPE
  5
49
330
5
100
AcDbSymbolTableRecord
100
AcDbLinetypeTableRecord
  2
DOT2
 70
     0
  3
Dot (.5x) ..........................
 72
    65
 73
     2
 40
3.175
 49
0.0
 74
     0
 49
-3.175
 74
     0
  0
LTYPE
  5
4A
330
5
100
AcDbSymbolTableRecord
100
AcDbLinetypeTableRecord
  2
DASHDOT
 70
     0
  3
__ . __ . __ . __ . __ . __ . __ . __ . __ . __ . __ . __
 72
    65
 73
     4
 40
25.4
 49
12.7
 74
     0
 49
-6.35
 74
     0
 49
0.0
 74
     0
 49
-6.35
 74
     0
  0
LTYPE
  5
4B
330
5
100
AcDbSymbolTableRecord
100
AcDbLinetypeTableRecord
  2
ACAD_ISO12W100
 70
     0
  3
__ .. __ .. __ .. __ .. __ .. __ .. __ .. __ .. __ .. __ .. __ .. __
 72
    65
 73
     6
 40
21.0
 49
12.0
 74
     0
 49
-3.0
 74
     0
 49
0.0
 74
     0
 49
-3.0
 74
     0
 49
0.0
 74
     0
 49
-3.0
 74
     0
  0
ENDTAB
  0
TABLE
  2
LAYER
  5
2
330
0
100
AcDbSymbolTable
 70
     9
  0
LAYER
  5
10
330
2
100
AcDbSymbolTableRecord
100
AcDbLayerTableRecord
  2
0
 70
     0
 62
     7
  6
CONTINUOUS
  0
LAYER
  5
4C
330
2
100
AcDbSymbolTableRecord
100
AcDbLayerTableRecord
  2
DI-FIOS
 70
     0
 62
     3
  6
CONTINUOUS
  0
LAYER
  5
4D
330
2
100
AcDbSymbolTableRecord
100
AcDbLayerTableRecord
  2
COTAS
 70
     0
 62
     2
  6
CONTINUOUS
  0
LAYER
  5
4E
330
2
100
AcDbSymbolTableRecord
100
AcDbLayerTableRecord
  2
DI-LINHAS_DO_QUADRO
 70
     0
 62
     1
  6
CONTINUOUS
  0
LAYER
  5
4F
330
2
100
AcDbSymbolTableRecord
100
AcDbLayerTableRecord
  2
DI-TEXTOS_DO_QUADRO
 70
     0
 62
     7
  6
CONTINUOUS
  0
LAYER
  5
50
330
2
100
AcDbSymbolTableRecord
100
AcDbLayerTableRecord
  2
DI-DISJUNTOR
 70
     0
 62
     1
  6
CONTINUOUS
  0
LAYER
  5
51
330
2
100
AcDbSymbolTableRecord
100
AcDbLayerTableRecord
  2
DI-TEXTOS_DO_DIAGRAMA
 70
     0
 62
     7
  6
CONTINUOUS
  0
LAYER
  5
52
330
2
100
AcDbSymbolTableRecord
100
AcDbLayerTableRecord
  2
DI-TÍTULO_DO_DIAGRAMA
 70
     0
 62
     3
  6
CONTINUOUS
  0
LAYER
  5
53
330
2
100
AcDbSymbolTableRecord
100
AcDbLayerTableRecord
  2
DI-LINHAS_DO_DIAGRAMA
 70
     0
 62
     9
  6
CONTINUOUS
  0
ENDTAB
  0
TABLE
  2
STYLE
  5
3
330
0
100
AcDbSymbolTable
 70
     2
  0
STYLE
  5
11
330
3
100
AcDbSymbolTableRecord
100
AcDbTextStyleTableRecord
  2
STANDARD
 70
     0
 40
0.0
 41
1.0
 50
0.0
 71
     0
 42
0.2
  3
txt
  4

  0
STYLE
  5
8B
330
3
100
AcDbSymbolTableRecord
100
AcDbTextStyleTableRecord
  2
ARIAL
 70
     0
 40
0.0
 41
1.0
 50
0.0
 71
     0
 42
0.0
  3

  4

1001
ACAD
1000
Arial
1071
      256
  0
ENDTAB
  0
TABLE
  2
VIEW
  5
6
330
0
100
AcDbSymbolTable
 70
     0
  0
ENDTAB
  0
TABLE
  2
UCS
  5
7
330
0
100
AcDbSymbolTable
 70
     0
  0
ENDTAB
  0
TABLE
  2
APPID
  5
9
330
0
100
AcDbSymbolTable
 70
     1
  0
APPID
  5
12
330
9
100
AcDbSymbolTableRecord
100
AcDbRegAppTableRecord
  2
ACAD
 70
     0
  0
ENDTAB
  0
TABLE
  2
DIMSTYLE
  5
A
330
0
100
AcDbSymbolTable
 70
     1
  0
DIMSTYLE
105
27
330
A
100
AcDbSymbolTableRecord
100
AcDbDimStyleTableRecord
  2
STANDARD
 70
     0
  3

  4

  5

  6

  7

 40
1.0
 41
0.18
 42
0.0625
 43
0.38
 44
0.18
 45
0.0
 46
0.0
 47
0.0
 48
0.0
140
0.18
141
0.09
142
0.0
143
25.4
144
1.0
145
0.0
146
1.0
147
0.09
 71
     0
 72
     0
 73
     1
 74
     1
 75
     0
 76
     0
 77
     0
 78
     0
170
     0
171
     2
172
     0
173
     0
174
     0
175
     0
176
     0
177
     0
178
     0
270
     2
271
     4
272
     4
273
     2
274
     2
340
11
275
     0
280
     0
281
     0
282
     0
283
     1
284
     0
285
     0
286
     0
287
     3
288
     0
  0
ENDTAB
  0
TABLE
  2
BLOCK_RECORD
  5
1
330
0
100
AcDbSymbolTable
 70
     6
  0
BLOCK_RECORD
  5
1F
330
1
100
AcDbSymbolTableRecord
100
AcDbBlockTableRecord
  2
*MODEL_SPACE
  0
BLOCK_RECORD
  5
1B
330
1
100
AcDbSymbolTableRecord
100
AcDbBlockTableRecord
  2
*PAPER_SPACE
  0
BLOCK_RECORD
  5
40
330
1
100
AcDbSymbolTableRecord
100
AcDbBlockTableRecord
  2
_DOT
  0
BLOCK_RECORD
  5
54
330
1
100
AcDbSymbolTableRecord
100
AcDbBlockTableRecord
  2
_OBLIQUE
  0
BLOCK_RECORD
  5
58
330
1
100
AcDbSymbolTableRecord
100
AcDbBlockTableRecord
  2
_CLOSED
  0
BLOCK_RECORD
  5
5F
330
1
100
AcDbSymbolTableRecord
100
AcDbBlockTableRecord
  2
_ORIGIN
  0
BLOCK_RECORD
  5
64
330
1
100
AcDbSymbolTableRecord
100
AcDbBlockTableRecord
  2
_NONE
  0
ENDTAB
  0
ENDSEC
  0
SECTION
  2
BLOCKS
  0
BLOCK
  5
20
330
1F
100
AcDbEntity
  8
0
100
AcDbBlockBegin
  2
*MODEL_SPACE
 70
     0
 10
0.0
 20
0.0
 30
0.0
  3
*MODEL_SPACE
  1

  0
ENDBLK
  5
21
330
1F
100
AcDbEntity
  8
0
100
AcDbBlockEnd
  0
BLOCK
  5
1C
330
1B
100
AcDbEntity
 67
     1
  8
0
100
AcDbBlockBegin
  2
*PAPER_SPACE
 70
     0
 10
0.0
 20
0.0
 30
0.0
  3
*PAPER_SPACE
  1

  0
ENDBLK
  5
1D
330
1B
100
AcDbEntity
 67
     1
  8
0
100
AcDbBlockEnd
  0
BLOCK
  5
41
330
40
100
AcDbEntity
  8
0
100
AcDbBlockBegin
  2
_DOT
 70
     0
 10
0.0
 20
0.0
 30
0.0
  3
_DOT
  1

  0
POLYLINE
  5
43
330
40
100
AcDbEntity
  8
0
  6
BYBLOCK
 62
     0
100
AcDb2dPolyline
 66
     1
 10
0.0
 20
0.0
 30
0.0
 70
     1
 40
0.5
 41
0.5
  0
VERTEX
  5
45
330
43
100
AcDbEntity
  8
0
  6
BYBLOCK
 62
     0
100
AcDbVertex
100
AcDb2dVertex
 10
-0.25
 20
0.0
 30
0.0
 42
1.0
  0
VERTEX
  5
46
330
43
100
AcDbEntity
  8
0
  6
BYBLOCK
 62
     0
100
AcDbVertex
100
AcDb2dVertex
 10
0.25
 20
0.0
 30
0.0
 42
1.0
  0
SEQEND
  5
47
330
43
100
AcDbEntity
  8
0
  6
BYBLOCK
 62
     0
  0
LINE
  5
44
330
40
100
AcDbEntity
  8
0
  6
BYBLOCK
 62
     0
100
AcDbLine
 10
-0.5
 20
0.0
 30
0.0
 11
-1.0
 21
0.0
 31
0.0
  0
ENDBLK
  5
42
330
40
100
AcDbEntity
  8
0
100
AcDbBlockEnd
  0
BLOCK
  5
55
330
54
100
AcDbEntity
  8
0
100
AcDbBlockBegin
  2
_OBLIQUE
 70
     0
 10
0.0
 20
0.0
 30
0.0
  3
_OBLIQUE
  1

  0
LINE
  5
57
330
54
100
AcDbEntity
  8
0
  6
BYBLOCK
 62
     0
100
AcDbLine
 10
-0.5
 20
-0.5
 30
0.0
 11
0.5
 21
0.5
 31
0.0
  0
ENDBLK
  5
56
330
54
100
AcDbEntity
  8
0
100
AcDbBlockEnd
  0
BLOCK
  5
59
330
58
100
AcDbEntity
  8
0
100
AcDbBlockBegin
  2
_CLOSED
 70
     0
 10
0.0
 20
0.0
 30
0.0
  3
_CLOSED
  1

  0
LINE
  5
5B
330
58
100
AcDbEntity
  8
0
  6
BYBLOCK
 62
     0
100
AcDbLine
 10
-1.0
 20
0.166667
 30
0.0
 11
0.0
 21
0.0
 31
0.0
  0
LINE
  5
5C
330
58
100
AcDbEntity
  8
0
  6
BYBLOCK
 62
     0
100
AcDbLine
 10
0.0
 20
0.0
 30
0.0
 11
-1.0
 21
-0.166667
 31
0.0
  0
LINE
  5
5D
330
58
100
AcDbEntity
  8
0
  6
BYBLOCK
 62
     0
100
AcDbLine
 10
-1.0
 20
0.166667
 30
0.0
 11
-1.0
 21
-0.166667
 31
0.0
  0
LINE
  5
5E
330
58
100
AcDbEntity
  8
0
  6
BYBLOCK
 62
     0
100
AcDbLine
 10
0.0
 20
0.0
 30
0.0
 11
-1.0
 21
0.0
 31
0.0
  0
ENDBLK
  5
5A
330
58
100
AcDbEntity
  8
0
100
AcDbBlockEnd
  0
BLOCK
  5
60
330
5F
100
AcDbEntity
  8
0
100
AcDbBlockBegin
  2
_ORIGIN
 70
     0
 10
0.0
 20
0.0
 30
0.0
  3
_ORIGIN
  1

  0
CIRCLE
  5
62
330
5F
100
AcDbEntity
  8
0
  6
BYBLOCK
 62
     0
100
AcDbCircle
 10
0.0
 20
0.0
 30
0.0
 40
0.5
  0
LINE
  5
63
330
5F
100
AcDbEntity
  8
0
  6
BYBLOCK
 62
     0
100
AcDbLine
 10
0.0
 20
0.0
 30
0.0
 11
-1.0
 21
0.0
 31
0.0
  0
ENDBLK
  5
61
330
5F
100
AcDbEntity
  8
0
100
AcDbBlockEnd
  0
BLOCK
  5
65
330
64
100
AcDbEntity
  8
0
100
AcDbBlockBegin
  2
_NONE
 70
     0
 10
0.0
 20
0.0
 30
0.0
  3
_NONE
  1

  0
ENDBLK
  5
66
330
64
100
AcDbEntity
  8
0
100
AcDbBlockEnd
  0
ENDSEC
  0
SECTION
  2
ENTITIES
  0
LWPOLYLINE
  5
67
330
1F
100
AcDbEntity
  8
DI-LINHAS_DO_DIAGRAMA
100
AcDbPolyline
 90
        5
 70
     1
 43
0.0
 10
4.236
 20
0.2118
 10
4.236
 20
3.7065
 10
9.3192
 20
3.7065
 10
9.3192
 20
0.2118
 10
4.236
 20
0.2118
  0
MTEXT
  5
68
330
1F
100
AcDbEntity
  8
DI-TÍTULO_DO_DIAGRAMA
100
AcDbMText
 10
9.404
 20
0.253788
 30
0.0
 40
0.4236
 41
3.55824
 71
     7
 72
     1
  1
Subsolo
  7
ARIAL
1001
ACAD
1000
MTEXTBEGIN
1070
    44
1040
0.7979999999999999
1000
MTEXTEND
  0
LWPOLYLINE
  5
8C
330
1F
100
AcDbEntity
  8
DI-LINHAS_DO_DIAGRAMA
100
AcDbPolyline
 90
        5
 70
     1
 43
0.0
 10
4.236
 20
3.7065
 10
4.236
 20
7.2012
 10
9.3192
 20
7.2012
 10
9.3192
 20
3.7065
 10
4.236
 20
3.7065
  0
MTEXT
  5
8D
330
1F
100
AcDbEntity
  8
DI-TÍTULO_DO_DIAGRAMA
100
AcDbMText
 10
9.404
 20
3.748788
 30
0.0
 40
0.4236
 41
3.04992
 71
     7
 72
     1
  1
Térreo
  7
ARIAL
1001
ACAD
1000
MTEXTBEGIN
1070
    44
1040
0.7979999999999999
1000
MTEXTEND
  0
LWPOLYLINE
  5
8E
330
1F
100
AcDbEntity
  8
DI-LINHAS_DO_DIAGRAMA
100
AcDbPolyline
 90
        5
 70
     1
 43
0.0
 10
4.236
 20
7.2012
 10
4.236
 20
10.6959
 10
9.3192
 20
10.6959
 10
9.3192
 20
7.2012
 10
4.236
 20
7.2012
  0
MTEXT
  5
8F
330
1F
100
AcDbEntity
  8
DI-TÍTULO_DO_DIAGRAMA
100
AcDbMText
 10
9.404
 20
7.243788
 30
0.0
 40
0.4236
 41
3.04992
 71
     7
 72
     1
  1
Pav. 1
  7
ARIAL
1001
ACAD
1000
MTEXTBEGIN
1070
    44
1040
0.7979999999999999
1000
MTEXTEND
  0
LWPOLYLINE
  5
90
330
1F
100
AcDbEntity
  8
DI-LINHAS_DO_DIAGRAMA
100
AcDbPolyline
 90
        5
 70
     1
 43
0.0
 10
4.236
 20
10.6959
 10
4.236
 20
14.1906
 10
9.3192
 20
14.1906
 10
9.3192
 20
10.6959
 10
4.236
 20
10.6959
  0
MTEXT
  5
91
330
1F
100
AcDbEntity
  8
DI-TÍTULO_DO_DIAGRAMA
100
AcDbMText
 10
9.404
 20
10.738788
 30
0.0
 40
0.4236
 41
3.04992
 71
     7
 72
     1
  1
Pav. 2
  7
ARIAL
1001
ACAD
1000
MTEXTBEGIN
1070
    44
1040
0.7979999999999999
1000
MTEXTEND
  0
MTEXT
  5
92
330
1F
100
AcDbEntity
  8
DI-TÍTULO_DO_DIAGRAMA
100
AcDbMText
 10
10.166
 20
14.36049
 30
0.0
 40
0.353
 41
4.236
 71
     9
 72
     1
  1
Sem Escala
  7
ARIAL
1001
ACAD
1000
MTEXTBEGIN
1070
    44
1040
0.7979999999999999
1000
MTEXTEND
  0
MTEXT
  5
93
330
1F
100
AcDbEntity
  8
DI-TÍTULO_DO_DIAGRAMA
100
AcDbMText
 10
6.777999999999999
 20
14.65
 30
0.0
 40
0.706
 41
13.5552
 71
     8
 72
     1
  1
Esquema Vertical
  7
ARIAL
1001
ACAD
1000
MTEXTBEGIN
1070
    44
1040
0.7979999999999999
1000
MTEXTEND
  0
LWPOLYLINE
  5
94
330
1F
100
AcDbEntity
  8
DI-DISJUNTOR
100
AcDbPolyline
 90
        5
 70
     1
 43
0.0
 10
5.0832
 20
1.8003
 10
5.0832
 20
2.118
 10
5.5068
 20
2.118
 10
5.5068
 20
1.8003
 10
5.0832
 20
1.8003
  0
LINE
  5
95
330
1F
100
AcDbEntity
  8
DI-DISJUNTOR
100
AcDbLine
 10
5.0832
 20
1.8003
 30
0.0
 11
5.5068
 21
2.118
 31
0.0
  0
MTEXT
  5
96
330
1F
100
AcDbEntity
  8
DI-TEXTOS_DO_DIAGRAMA
100
AcDbMText
 10
4.998
 20
1.852894
 30
0.0
 40
0.2118
 41
0.7624799999999999
 71
     9
 72
     1
  1
QD1
  7
ARIAL
1001
ACAD
1000
MTEXTBEGIN
1070
    44
1040
0.7979999999999999
1000
MTEXTEND
  0
LWPOLYLINE
  5
97
330
1F
100
AcDbEntity
  8
DI-DISJUNTOR
100
AcDbPolyline
 90
        5
 70
     1
 43
0.0
 10
2.9652
 20
5.295
 10
2.9652
 20
5.6127
 10
3.3888
 20
5.6127
 10
3.3888
 20
5.295
 10
2.9652
 20
5.295
  0
LINE
  5
98
330
1F
100
AcDbEntity
  8
DI-DISJUNTOR
100
AcDbLine
 10
2.9652
 20
5.295
 30
0.0
 11
3.3888
 21
5.6127
 31
0.0
  0
MTEXT
  5
99
330
1F
100
AcDbEntity
  8
DI-TEXTOS_DO_DIAGRAMA
100
AcDbMText
 10
2.88
 20
5.347893999999999
 30
0.0
 40
0.2118
 41
0.7624799999999999
 71
     9
 72
     1
  1
AL1
  7
ARIAL
1001
ACAD
1000
MTEXTBEGIN
1070
    44
1040
0.7979999999999999
1000
MTEXTEND
  0
LWPOLYLINE
  5
9A
330
1F
100
AcDbEntity
  8
DI-DISJUNTOR
100
AcDbPolyline
 90
        5
 70
     1
 43
0.0
 10
5.0832
 20
5.295
 10
5.0832
 20
5.6127
 10
5.5068
 20
5.6127
 10
5.5068
 20
5.295
 10
5.0832
 20
5.295
  0
LINE
  5
9B
330
1F
100
AcDbEntity
  8
DI-DISJUNTOR
100
AcDbLine
 10
5.0832
 20
5.295
 30
0.0
 11
5.5068
 21
5.6127
 31
0.0
  0
MTEXT
  5
9C
330
1F
100
AcDbEntity
  8
DI-TEXTOS_DO_DIAGRAMA
100
AcDbMText
 10
4.998
 20
5.347893999999999
 30
0.0
 40
0.2118
 41
0.50832
 71
     9
 72
     1
  1
QG
  7
ARIAL
1001
ACAD
1000
MTEXTBEGIN
1070
    44
1040
0.7979999999999999
1000
MTEXTEND
  0
LWPOLYLINE
  5
9D
330
1F
100
AcDbEntity
  8
DI-DISJUNTOR
100
AcDbPolyline
 90
        5
 70
     1
 43
0.0
 10
7.2012
 20
5.295
 10
7.2012
 20
5.6127
 10
7.6248
 20
5.6127
 10
7.6248
 20
5.295
 10
7.2012
 20
5.295
  0
LINE
  5
9E
330
1F
100
AcDbEntity
  8
DI-DISJUNTOR
100
AcDbLine
 10
7.2012
 20
5.295
 30
0.0
 11
7.6248
 21
5.6127
 31
0.0
  0
MTEXT
  5
9F
330
1F
100
AcDbEntity
  8
DI-TEXTOS_DO_DIAGRAMA
100
AcDbMText
 10
7.116
 20
5.347893999999999
 30
0.0
 40
0.2118
 41
0.7624799999999999
 71
     9
 72
     1
  1
QD2
  7
ARIAL
1001
ACAD
1000
MTEXTBEGIN
1070
    44
1040
0.7979999999999999
1000
MTEXTEND
  0
LWPOLYLINE
  5
A0
330
1F
100
AcDbEntity
  8
DI-DISJUNTOR
100
AcDbPolyline
 90
        5
 70
     1
 43
0.0
 10
5.0832
 20
8.7897
 10
5.0832
 20
9.1074
 10
5.5068
 20
9.1074
 10
5.5068
 20
8.7897
 10
5.0832
 20
8.7897
  0
LINE
  5
A1
330
1F
100
AcDbEntity
  8
DI-DISJUNTOR
100
AcDbLine
 10
5.0832
 20
8.7897
 30
0.0
 11
5.5068
 21
9.1074
 31
0.0
  0
MTEXT
  5
A2
330
1F
100
AcDbEntity
  8
DI-TEXTOS_DO_DIAGRAMA
100
AcDbMText
 10
4.998
 20
8.842894
 30
0.0
 40
0.2118
 41
0.7624799999999999
 71
     9
 72
     1
  1
QD3
  7
ARIAL
1001
ACAD
1000
MTEXTBEGIN
1070
    44
1040
0.7979999999999999
1000
MTEXTEND
  0
LWPOLYLINE
  5
A3
330
1F
100
AcDbEntity
  8
DI-DISJUNTOR
100
AcDbPolyline
 90
        5
 70
     1
 43
0.0
 10
7.2012
 20
8.7897
 10
7.2012
 20
9.1074
 10
7.6248
 20
9.1074
 10
7.6248
 20
8.7897
 10
7.2012
 20
8.7897
  0
LINE
  5
A4
330
1F
100
AcDbEntity
  8
DI-DISJUNTOR
100
AcDbLine
 10
7.2012
 20
8.7897
 30
0.0
 11
7.6248
 21
9.1074
 31
0.0
  0
MTEXT
  5
A5
330
1F
100
AcDbEntity
  8
DI-TEXTOS_DO_DIAGRAMA
100
AcDbMText
 10
7.116
 20
8.842894
 30
0.0
 40
0.2118
 41
0.7624799999999999
 71
     9
 72
     1
  1
QD5
  7
ARIAL
1001
ACAD
1000
MTEXTBEGIN
1070
    44
1040
0.7979999999999999
1000
MTEXTEND
  0
LWPOLYLINE
  5
A6
330
1F
100
AcDbEntity
  8
DI-DISJUNTOR
100
AcDbPolyline
 90
        5
 70
     1
 43
0.0
 10
5.0832
 20
12.2844
 10
5.0832
 20
12.6021
 10
5.5068
 20
12.6021
 10
5.5068
 20
12.2844
 10
5.0832
 20
12.2844
  0
LINE
  5
A7
330
1F
100
AcDbEntity
  8
DI-DISJUNTOR
100
AcDbLine
 10
5.0832
 20
12.2844
 30
0.0
 11
5.5068
 21
12.6021
 31
0.0
  0
MTEXT
  5
A8
330
1F
100
AcDbEntity
  8
DI-TEXTOS_DO_DIAGRAMA
100
AcDbMText
 10
4.998
 20
12.336894
 30
0.0
 40
0.2118
 41
0.7624799999999999
 71
     9
 72
     1
  1
QD4
  7
ARIAL
1001
ACAD
1000
MTEXTBEGIN
1070
    44
1040
0.7979999999999999
1000
MTEXTEND
  0
LWPOLYLINE
  5
A9
330
1F
100
AcDbEntity
  8
DI-DISJUNTOR
100
AcDbPolyline
 90
        5
 70
     1
 43
0.0
 10
7.2012
 20
12.2844
 10
7.2012
 20
12.6021
 10
7.6248
 20
12.6021
 10
7.6248
 20
12.2844
 10
7.2012
 20
12.2844
  0
LINE
  5
AA
330
1F
100
AcDbEntity
  8
DI-DISJUNTOR
100
AcDbLine
 10
7.2012
 20
12.2844
 30
0.0
 11
7.6248
 21
12.6021
 31
0.0
  0
MTEXT
  5
AB
330
1F
100
AcDbEntity
  8
DI-TEXTOS_DO_DIAGRAMA
100
AcDbMText
 10
7.116
 20
12.336894
 30
0.0
 40
0.2118
 41
0.7624799999999999
 71
     9
 72
     1
  1
QD6
  7
ARIAL
1001
ACAD
1000
MTEXTBEGIN
1070
    44
1040
0.7979999999999999
1000
MTEXTEND
  0
LINE
  5
AC
330
1F
100
AcDbEntity
  8
DI-FIOS
100
AcDbLine
 10
3.177
 20
5.295
 30
0.0
 11
3.177
 21
5.0832
 31
0.0
  0
LINE
  5
AD
330
1F
100
AcDbEntity
  8
DI-FIOS
100
AcDbLine
 10
3.177
 20
5.0832
 30
0.0
 11
5.1891
 21
5.0832
 31
0.0
  0
LINE
  5
AE
330
1F
100
AcDbEntity
  8
DI-FIOS
100
AcDbLine
 10
5.1891
 20
5.0832
 30
0.0
 11
5.1891
 21
5.295
 31
0.0
  0
LINE
  5
AF
330
1F
100
AcDbEntity
  8
DI-FIOS
100
AcDbLine
 10
5.4009
 20
5.295
 30
0.0
 11
5.4009
 21
5.0832
 31
0.0
  0
LINE
  5
B0
330
1F
100
AcDbEntity
  8
DI-FIOS
100
AcDbLine
 10
5.4009
 20
5.0832
 30
0.0
 11
7.413
 21
5.0832
 31
0.0
  0
LINE
  5
B1
330
1F
100
AcDbEntity
  8
DI-FIOS
100
AcDbLine
 10
7.413
 20
5.0832
 30
0.0
 11
7.413
 21
5.295
 31
0.0
  0
LINE
  5
B2
330
1F
100
AcDbEntity
  8
DI-FIOS
100
AcDbLine
 10
5.295
 20
2.118
 30
0.0
 11
5.295
 21
5.295
 31
0.0
  0
LINE
  5
B3
330
1F
100
AcDbEntity
  8
DI-FIOS
100
AcDbLine
 10
5.16792
 20
5.6127
 30
0.0
 11
5.16792
 21
8.7897
 31
0.0
  0
LINE
  5
B4
330
1F
100
AcDbEntity
  8
DI-FIOS
100
AcDbLine
 10
5.25264
 20
5.6127
 30
0.0
 11
5.25264
 21
12.2844
 31
0.0
  0
LINE
  5
B5
330
1F
100
AcDbEntity
  8
DI-FIOS
100
AcDbLine
 10
5.42208
 20
5.6127
 30
0.0
 11
5.42208
 21
7.37064
 31
0.0
  0
LINE
  5
B6
330
1F
100
AcDbEntity
  8
DI-FIOS
100
AcDbLine
 10
7.413
 20
8.7897
 30
0.0
 11
7.413
 21
7.37064
 31
0.0
  0
LINE
  5
B7
330
1F
100
AcDbEntity
  8
DI-FIOS
100
AcDbLine
 10
7.413
 20
7.37064
 30
0.0
 11
5.42208
 21
7.37064
 31
0.0
  0
LINE
  5
B8
330
1F
100
AcDbEntity
  8
DI-FIOS
100
AcDbLine
 10
5.33736
 20
5.6127
 30
0.0
 11
5.33736
 21
7.28592
 31
0.0
  0
LINE
  5
B9
330
1F
100
AcDbEntity
  8
DI-FIOS
100
AcDbLine
 10
7.413
 20
12.2844
 30
0.0
 11
7.413
 21
7.28592
 31
0.0
  0
LINE
  5
BA
330
1F
100
AcDbEntity
  8
DI-FIOS
100
AcDbLine
 10
7.413
 20
7.28592
 30
0.0
 11
5.33736
 21
7.28592
 31
0.0
  0
LINE
  5
BB
330
1F
100
AcDbEntity
  8
DI-LINHAS_DO_QUADRO
  6
CONTINUOUS
100
AcDbLine
 10
-6.48637
 20
-0.82602
 30
0.0
 11
19.7239
 21
-0.82602
 31
0.0
  0
MTEXT
  5
BC
330
1F
100
AcDbEntity
  8
DI-TEXTOS_DO_QUADRO
100
AcDbMText
 10
-5.851
 20
-1.122106
 30
0.0
 40
0.2118
 41
1.52496
 71
     8
 72
     1
  1
Quadro
  7
ARIAL
1001
ACAD
1000
MTEXTBEGIN
1070
    44
1040
0.7979999999999999
1000
MTEXTEND
  0
MTEXT
  5
BD
330
1F
100
AcDbEntity
  8
DI-TEXTOS_DO_QUADRO
100
AcDbMText
 10
-4.024
 20
-1.192
 30
0.0
 40
0.2118
 41
2.28744
 71
     8
 72
     1
  1
Descrição
  7
ARIAL
1001
ACAD
1000
MTEXTBEGIN
1070
    44
1040
0.7979999999999999
1000
MTEXTEND
  0
MTEXT
  5
BE
330
1F
100
AcDbEntity
  8
DI-TEXTOS_DO_QUADRO
100
AcDbMText
 10
-2.118
 20
-1.192
 30
0.0
 40
0.2118
 41
1.77912
 71
     8
 72
     1
  1
Esquema
  7
ARIAL
1001
ACAD
1000
MTEXTBEGIN
1070
    44
1040
0.7979999999999999
1000
MTEXTEND
  0
MTEXT
  5
BF
330
1F
100
AcDbEntity
  8
DI-TEXTOS_DO_QUADRO
100
AcDbMText
 10
-0.371
 20
-1.122106
 30
0.0
 40
0.2118
 41
0.25416
 71
     8
 72
     1
  1
V
  7
ARIAL
1001
ACAD
1000
MTEXTBEGIN
1070
    44
1040
0.7979999999999999
1000
MTEXTEND
  0
MTEXT
  5
C0
330
1F
100
AcDbEntity
  8
DI-TEXTOS_DO_QUADRO
100
AcDbMText
 10
-0.371
 20
-1.574
 30
0.0
 40
0.2118
 41
0.7624799999999999
 71
     8
 72
     1
  1
(V)
  7
ARIAL
1001
ACAD
1000
MTEXTBEGIN
1070
    44
1040
0.7979999999999999
1000
MTEXTEND
  0
MTEXT
  5
C1
330
1F
100
AcDbEntity
  8
DI-TEXTOS_DO_QUADRO
100
AcDbMText
 10
1.694
 20
-1.122106
 30
0.0
 40
0.2118
 41
2.79576
 71
     8
 72
     1
  1
Pot. total.
  7
ARIAL
1001
ACAD
1000
MTEXTBEGIN
1070
    44
1040
0.7979999999999999
1000
MTEXTEND
  0
MTEXT
  5
C2
330
1F
100
AcDbEntity
  8
DI-TEXTOS_DO_QUADRO
100
AcDbMText
 10
1.694
 20
-1.574
 30
0.0
 40
0.2118
 41
0.7624799999999999
 71
     8
 72
     1
  1
(W)
  7
ARIAL
1001
ACAD
1000
MTEXTBEGIN
1070
    44
1040
0.7979999999999999
1000
MTEXTEND
  0
MTEXT
  5
C3
330
1F
100
AcDbEntity
  8
DI-TEXTOS_DO_QUADRO
100
AcDbMText
 10
3.521
 20
-1.122106
 30
0.0
 40
0.2118
 41
2.03328
 71
     8
 72
     1
  1
Pot. - A
  7
ARIAL
1001
ACAD
1000
MTEXTBEGIN
1070
    44
1040
0.7979999999999999
1000
MTEXTEND
  0
MTEXT
  5
C4
330
1F
100
AcDbEntity
  8
DI-TEXTOS_DO_QUADRO
100
AcDbMText
 10
3.521
 20
-1.574
 30
0.0
 40
0.2118
 41
0.7624799999999999
 71
     8
 72
     1
  1
(W)
  7
ARIAL
1001
ACAD
1000
MTEXTBEGIN
1070
    44
1040
0.7979999999999999
1000
MTEXTEND
  0
MTEXT
  5
C5
330
1F
100
AcDbEntity
  8
DI-TEXTOS_DO_QUADRO
100
AcDbMText
 10
5.109999999999999
 20
-1.122106
 30
0.0
 40
0.2118
 41
2.03328
 71
     8
 72
     1
  1
Pot. - B
  7
ARIAL
1001
ACAD
1000
MTEXTBEGIN
1070
    44
1040
0.7979999999999999
1000
MTEXTEND
  0
MTEXT
  5
C6
330
1F
100
AcDbEntity
  8
DI-TEXTOS_DO_QUADRO
100
AcDbMText
 10
5.11
 20
-1.574
 30
0.0
 40
0.2118
 41
0.7624799999999999
 71
     8
 72
     1
  1
(W)
  7
ARIAL
1001
ACAD
1000
MTEXTBEGIN
1070
    44
1040
0.7979999999999999
1000
MTEXTEND
  0
MTEXT
  5
C7
330
1F
100
AcDbEntity
  8
DI-TEXTOS_DO_QUADRO
100
AcDbMText
 10
6.698
 20
-1.122106
 30
0.0
 40
0.2118
 41
2.03328
 71
     8
 72
     1
  1
Pot. - C
  7
ARIAL
1001
ACAD
1000
MTEXTBEGIN
1070
    44
1040
0.7979999999999999
1000
MTEXTEND
  0
MTEXT
  5
C8
330
1F
100
AcDbEntity
  8
DI-TEXTOS_DO_QUADRO
100
AcDbMText
 10
6.698
 20
-1.574
 30
0.0
 40
0.2118
 41
0.7624799999999999
 71
     8
 72
     1
  1
(W)
  7
ARIAL
1001
ACAD
1000
MTEXTBEGIN
1070
    44
1040
0.7979999999999999
1000
MTEXTEND
  0
MTEXT
  5
C9
330
1F
100
AcDbEntity
  8
DI-TEXTOS_DO_QUADRO
100
AcDbMText
 10
8.684
 20
-1.122106
 30
0.0
 40
0.2118
 41
3.30408
 71
     8
 72
     1
  1
Demanda total
  7
ARIAL
1001
ACAD
1000
MTEXTBEGIN
1070
    44
1040
0.7979999999999999
1000
MTEXTEND
  0
MTEXT
  5
CA
330
1F
100
AcDbEntity
  8
DI-TEXTOS_DO_QUADRO
100
AcDbMText
 10
8.683999999999997
 20
-1.574
 30
0.0
 40
0.2118
 41
1.01664
 71
     8
 72
     1
  1
(VA)
  7
ARIAL
1001
ACAD
1000
MTEXTBEGIN
1070
    44
1040
0.7979999999999999
1000
MTEXTEND
  0
MTEXT
  5
CB
330
1F
100
AcDbEntity
  8
DI-TEXTOS_DO_QUADRO
100
AcDbMText
 10
10.908
 20
-1.122106
 30
0.0
 40
0.2118
 41
2.79576
 71
     8
 72
     1
  1
Demanda - A
  7
ARIAL
1001
ACAD
1000
MTEXTBEGIN
1070
    44
1040
0.7979999999999999
1000
MTEXTEND
  0
MTEXT
  5
CC
330
1F
100
AcDbEntity
  8
DI-TEXTOS_DO_QUADRO
100
AcDbMText
 10
10.908
 20
-1.574
 30
0.0
 40
0.2118
 41
1.01664
 71
     8
 72
     1
  1
(VA)
  7
ARIAL
1001
ACAD
1000
MTEXTBEGIN
1070
    44
1040
0.7979999999999999
1000
MTEXTEND
  0
MTEXT
  5
CD
330
1F
100
AcDbEntity
  8
DI-TEXTOS_DO_QUADRO
100
AcDbMText
 10
12.973
 20
-1.122106
 30
0.0
 40
0.2118
 41
2.79576
 71
     8
 72
     1
  1
Demanda - B
  7
ARIAL
1001
ACAD
1000
MTEXTBEGIN
1070
    44
1040
0.7979999999999999
1000
MTEXTEND
  0
MTEXT
  5
CE
330
1F
100
AcDbEntity
  8
DI-TEXTOS_DO_QUADRO
100
AcDbMText
 10
12.973
 20
-1.574
 30
0.0
 40
0.2118
 41
1.01664
 71
     8
 72
     1
  1
(VA)
  7
ARIAL
1001
ACAD
1000
MTEXTBEGIN
1070
    44
1040
0.7979999999999999
1000
MTEXTEND
  0
MTEXT
  5
CF
330
1F
100
AcDbEntity
  8
DI-TEXTOS_DO_QUADRO
100
AcDbMText
 10
15.038
 20
-1.122106
 30
0.0
 40
0.2118
 41
2.79576
 71
     8
 72
     1
  1
Demanda - C
  7
ARIAL
1001
ACAD
1000
MTEXTBEGIN
1070
    44
1040
0.7979999999999999
1000
MTEXTEND
  0
MTEXT
  5
D0
330
1F
100
AcDbEntity
  8
DI-TEXTOS_DO_QUADRO
100
AcDbMText
 10
15.038
 20
-1.574
 30
0.0
 40
0.2118
 41
1.01664
 71
     8
 72
     1
  1
(VA)
  7
ARIAL
1001
ACAD
1000
MTEXTBEGIN
1070
    44
1040
0.7979999999999999
1000
MTEXTEND
  0
MTEXT
  5
D1
330
1F
100
AcDbEntity
  8
DI-TEXTOS_DO_QUADRO
100
AcDbMText
 10
16.626
 20
-1.192
 30
0.0
 40
0.2118
 41
1.2708
 71
     8
 72
     1
  1
Seção
  7
ARIAL
1001
ACAD
1000
MTEXTBEGIN
1070
    44
1040
0.7979999999999999
1000
MTEXTEND
  0
MTEXT
  5
D2
330
1F
100
AcDbEntity
  8
DI-TEXTOS_DO_QUADRO
100
AcDbMText
 10
16.626
 20
-1.574
 30
0.0
 40
0.2118
 41
1.2708
 71
     8
 72
     1
  1
(mm2)
  7
ARIAL
1001
ACAD
1000
MTEXTBEGIN
1070
    44
1040
0.7979999999999999
1000
MTEXTEND
  0
MTEXT
  5
D3
330
1F
100
AcDbEntity
  8
DI-TEXTOS_DO_QUADRO
100
AcDbMText
 10
17.738
 20
-1.192
 30
0.0
 40
0.2118
 41
1.01664
 71
     8
 72
     1
  1
Disj
  7
ARIAL
1001
ACAD
1000
MTEXTBEGIN
1070
    44
1040
0.7979999999999999
1000
MTEXTEND
  0
MTEXT
  5
D4
330
1F
100
AcDbEntity
  8
DI-TEXTOS_DO_QUADRO
100
AcDbMText
 10
17.738
 20
-1.574
 30
0.0
 40
0.2118
 41
0.7624799999999999
 71
     8
 72
     1
  1
(A)
  7
ARIAL
1001
ACAD
1000
MTEXTBEGIN
1070
    44
1040
0.7979999999999999
1000
MTEXTEND
  0
MTEXT
  5
D5
330
1F
100
AcDbEntity
  8
DI-TEXTOS_DO_QUADRO
100
AcDbMText
 10
19.009
 20
-1.122106
 30
0.0
 40
0.2118
 41
1.77912
 71
     8
 72
     1
  1
Conduto
  7
ARIAL
1001
ACAD
1000
MTEXTBEGIN
1070
    44
1040
0.7979999999999999
1000
MTEXTEND
  0
LINE
  5
D6
330
1F
100
AcDbEntity
  8
DI-LINHAS_DO_QUADRO
  6
CONTINUOUS
100
AcDbLine
 10
-6.48637
 20
-1.5885
 30
0.0
 11
19.7239
 21
-1.5885
 31
0.0
  0
LINE
  5
D7
330
1F
100
AcDbEntity
  8
DI-LINHAS_DO_QUADRO
  6
CONTINUOUS
100
AcDbLine
 10
-6.48637
 20
-1.96974
 30
0.0
 11
19.7239
 21
-1.96974
 31
0.0
  0
MTEXT
  5
D8
330
1F
100
AcDbEntity
  8
DI-TEXTOS_DO_QUADRO
100
AcDbMText
 10
-5.851
 20
-1.885106
 30
0.0
 40
0.2118
 41
0.7624799999999999
 71
     8
 72
     1
  1
QD1
  7
ARIAL
1001
ACAD
1000
MTEXTBEGIN
1070
    44
1040
0.7979999999999999
1000
MTEXTEND
  0
MTEXT
  5
D9
330
1F
100
AcDbEntity
  8
DI-TEXTOS_DO_QUADRO
100
AcDbMText
 10
-5.057
 20
-1.885106
 30
0.0
 40
0.2118
 41
1.77912
 71
     7
 72
     1
  1
Subsolo
  7
ARIAL
1001
ACAD
1000
MTEXTBEGIN
1070
    44
1040
0.7979999999999999
1000
MTEXTEND
  0
MTEXT
  5
DA
330
1F
100
AcDbEntity
  8
DI-TEXTOS_DO_QUADRO
100
AcDbMText
 10
-2.118
 20
-1.885106
 30
0.0
 40
0.2118
 41
1.52496
 71
     8
 72
     1
  1
3F+N+T
  7
ARIAL
1001
ACAD
1000
MTEXTBEGIN
1070
    44
1040
0.7979999999999999
1000
MTEXTEND
  0
MTEXT
  5
DB
330
1F
100
AcDbEntity
  8
DI-TEXTOS_DO_QUADRO
100
AcDbMText
 10
-0.371
 20
-1.885106
 30
0.0
 40
0.2118
 41
2.79576
 71
     8
 72
     1
  1
380 / 220 V
  7
ARIAL
1001
ACAD
1000
MTEXTBEGIN
1070
    44
1040
0.7979999999999999
1000
MTEXTEND
  0
MTEXT
  5
DC
330
1F
100
AcDbEntity
  8
DI-TEXTOS_DO_QUADRO
100
AcDbMText
 10
2.568
 20
-1.885106
 30
0.0
 40
0.2118
 41
1.01664
 71
     9
 72
     1
  1
6085
  7
ARIAL
1001
ACAD
1000
MTEXTBEGIN
1070
    44
1040
0.7979999999999999
1000
MTEXTEND
  0
MTEXT
  5
DD
330
1F
100
AcDbEntity
  8
DI-TEXTOS_DO_QUADRO
100
AcDbMText
 10
4.157
 20
-1.885106
 30
0.0
 40
0.2118
 41
1.01664
 71
     9
 72
     1
  1
1863
  7
ARIAL
1001
ACAD
1000
MTEXTBEGIN
1070
    44
1040
0.7979999999999999
1000
MTEXTEND
  0
MTEXT
  5
DE
330
1F
100
AcDbEntity
  8
DI-TEXTOS_DO_QUADRO
100
AcDbMText
 10
5.745
 20
-1.885106
 30
0.0
 40
0.2118
 41
1.01664
 71
     9
 72
     1
  1
2488
  7
ARIAL
1001
ACAD
1000
MTEXTBEGIN
1070
    44
1040
0.7979999999999999
1000
MTEXTEND
  0
MTEXT
  5
DF
330
1F
100
AcDbEntity
  8
DI-TEXTOS_DO_QUADRO
100
AcDbMText
 10
7.334
 20
-1.885106
 30
0.0
 40
0.2118
 41
1.01664
 71
     9
 72
     1
  1
1733
  7
ARIAL
1001
ACAD
1000
MTEXTBEGIN
1070
    44
1040
0.7979999999999999
1000
MTEXTEND
  0
MTEXT
  5
E0
330
1F
100
AcDbEntity
  8
DI-TEXTOS_DO_QUADRO
100
AcDbMText
 10
9.716
 20
-1.885106
 30
0.0
 40
0.2118
 41
1.01664
 71
     9
 72
     1
  1
7332
  7
ARIAL
1001
ACAD
1000
MTEXTBEGIN
1070
    44
1040
0.7979999999999999
1000
MTEXTEND
  0
MTEXT
  5
E1
330
1F
100
AcDbEntity
  8
DI-TEXTOS_DO_QUADRO
100
AcDbMText
 10
11.781
 20
-1.885106
 30
0.0
 40
0.2118
 41
1.01664
 71
     9
 72
     1
  1
2242
  7
ARIAL
1001
ACAD
1000
MTEXTBEGIN
1070
    44
1040
0.7979999999999999
1000
MTEXTEND
  0
MTEXT
  5
E2
330
1F
100
AcDbEntity
  8
DI-TEXTOS_DO_QUADRO
100
AcDbMText
 10
13.846
 20
-1.885106
 30
0.0
 40
0.2118
 41
1.01664
 71
     9
 72
     1
  1
2924
  7
ARIAL
1001
ACAD
1000
MTEXTBEGIN
1070
    44
1040
0.7979999999999999
1000
MTEXTEND
  0
MTEXT
  5
E3
330
1F
100
AcDbEntity
  8
DI-TEXTOS_DO_QUADRO
100
AcDbMText
 10
15.912
 20
-1.885106
 30
0.0
 40
0.2118
 41
1.01664
 71
     9
 72
     1
  1
2167
  7
ARIAL
1001
ACAD
1000
MTEXTBEGIN
1070
    44
1040
0.7979999999999999
1000
MTEXTEND
  0
MTEXT
  5
E4
330
1F
100
AcDbEntity
  8
DI-TEXTOS_DO_QUADRO
100
AcDbMText
 10
17.023
 20
-1.885106
 30
0.0
 40
0.2118
 41
0.7624799999999999
 71
     9
 72
     1
  1
2.5
  7
ARIAL
1001
ACAD
1000
MTEXTBEGIN
1070
    44
1040
0.7979999999999999
1000
MTEXTEND
  0
MTEXT
  5
E5
330
1F
100
AcDbEntity
  8
DI-TEXTOS_DO_QUADRO
100
AcDbMText
 10
18.135
 20
-1.885106
 30
0.0
 40
0.2118
 41
1.01664
 71
     9
 72
     1
  1
20.0
  7
ARIAL
1001
ACAD
1000
MTEXTBEGIN
1070
    44
1040
0.7979999999999999
1000
MTEXTEND
  0
MTEXT
  5
E6
330
1F
100
AcDbEntity
  8
DI-TEXTOS_DO_QUADRO
100
AcDbMText
 10
19.009
 20
-1.885106
 30
0.0
 40
0.2118
 41
1.77912
 71
     8
 72
     1
  1
ø1.1/2"
  7
ARIAL
1001
ACAD
1000
MTEXTBEGIN
1070
    44
1040
0.7979999999999999
1000
MTEXTEND
  0
LINE
  5
E7
330
1F
100
AcDbEntity
  8
DI-LINHAS_DO_QUADRO
  6
CONTINUOUS
100
AcDbLine
 10
-6.48637
 20
-2.35098
 30
0.0
 11
19.7239
 21
-2.35098
 31
0.0
  0
MTEXT
  5
E8
330
1F
100
AcDbEntity
  8
DI-TEXTOS_DO_QUADRO
100
AcDbMText
 10
-5.851
 20
-2.266106
 30
0.0
 40
0.2118
 41
0.7624799999999999
 71
     8
 72
     1
  1
QD2
  7
ARIAL
1001
ACAD
1000
MTEXTBEGIN
1070
    44
1040
0.7979999999999999
1000
MTEXTEND
  0
MTEXT
  5
E9
330
1F
100
AcDbEntity
  8
DI-TEXTOS_DO_QUADRO
100
AcDbMText
 10
-5.057
 20
-2.266106
 30
0.0
 40
0.2118
 41
3.30408
 71
     7
 72
     1
  1
Quadro Térreo
  7
ARIAL
1001
ACAD
1000
MTEXTBEGIN
1070
    44
1040
0.7979999999999999
1000
MTEXTEND
  0
MTEXT
  5
EA
330
1F
100
AcDbEntity
  8
DI-TEXTOS_DO_QUADRO
100
AcDbMText
 10
-2.118
 20
-2.266106
 30
0.0
 40
0.2118
 41
1.52496
 71
     8
 72
     1
  1
3F+N+T
  7
ARIAL
1001
ACAD
1000
MTEXTBEGIN
1070
    44
1040
0.7979999999999999
1000
MTEXTEND
  0
MTEXT
  5
EB
330
1F
100
AcDbEntity
  8
DI-TEXTOS_DO_QUADRO
100
AcDbMText
 10
-0.371
 20
-2.266106
 30
0.0
 40
0.2118
 41
2.79576
 71
     8
 72
     1
  1
380 / 220 V
  7
ARIAL
1001
ACAD
1000
MTEXTBEGIN
1070
    44
1040
0.7979999999999999
1000
MTEXTEND
  0
MTEXT
  5
EC
330
1F
100
AcDbEntity
  8
DI-TEXTOS_DO_QUADRO
100
AcDbMText
 10
2.568
 20
-2.266106
 30
0.0
 40
0.2118
 41
1.2708
 71
     9
 72
     1
  1
57943
  7
ARIAL
1001
ACAD
1000
MTEXTBEGIN
1070
    44
1040
0.7979999999999999
1000
MTEXTEND
  0
MTEXT
  5
ED
330
1F
100
AcDbEntity
  8
DI-TEXTOS_DO_QUADRO
100
AcDbMText
 10
4.157
 20
-2.266106
 30
0.0
 40
0.2118
 41
1.2708
 71
     9
 72
     1
  1
19653
  7
ARIAL
1001
ACAD
1000
MTEXTBEGIN
1070
    44
1040
0.7979999999999999
1000
MTEXTEND
  0
MTEXT
  5
EE
330
1F
100
AcDbEntity
  8
DI-TEXTOS_DO_QUADRO
100
AcDbMText
 10
5.745
 20
-2.266106
 30
0.0
 40
0.2118
 41
1.2708
 71
     9
 72
     1
  1
19320
  7
ARIAL
1001
ACAD
1000
MTEXTBEGIN
1070
    44
1040
0.7979999999999999
1000
MTEXTEND
  0
MTEXT
  5
EF
330
1F
100
AcDbEntity
  8
DI-TEXTOS_DO_QUADRO
100
AcDbMText
 10
7.334
 20
-2.266106
 30
0.0
 40
0.2118
 41
1.2708
 71
     9
 72
     1
  1
18969
  7
ARIAL
1001
ACAD
1000
MTEXTBEGIN
1070
    44
1040
0.7979999999999999
1000
MTEXTEND
  0
MTEXT
  5
F0
330
1F
100
AcDbEntity
  8
DI-TEXTOS_DO_QUADRO
100
AcDbMText
 10
9.716
 20
-2.266106
 30
0.0
 40
0.2118
 41
1.2708
 71
     9
 72
     1
  1
62962
  7
ARIAL
1001
ACAD
1000
MTEXTBEGIN
1070
    44
1040
0.7979999999999999
1000
MTEXTEND
  0
MTEXT
  5
F1
330
1F
100
AcDbEntity
  8
DI-TEXTOS_DO_QUADRO
100
AcDbMText
 10
11.781
 20
-2.266106
 30
0.0
 40
0.2118
 41
1.2708
 71
     9
 72
     1
  1
20186
  7
ARIAL
1001
ACAD
1000
MTEXTBEGIN
1070
    44
1040
0.7979999999999999
1000
MTEXTEND
  0
MTEXT
  5
F2
330
1F
100
AcDbEntity
  8
DI-TEXTOS_DO_QUADRO
100
AcDbMText
 10
13.846
 20
-2.266106
 30
0.0
 40
0.2118
 41
1.2708
 71
     9
 72
     1
  1
21573
  7
ARIAL
1001
ACAD
1000
MTEXTBEGIN
1070
    44
1040
0.7979999999999999
1000
MTEXTEND
  0
MTEXT
  5
F3
330
1F
100
AcDbEntity
  8
DI-TEXTOS_DO_QUADRO
100
AcDbMText
 10
15.912
 20
-2.266106
 30
0.0
 40
0.2118
 41
1.2708
 71
     9
 72
     1
  1
21203
  7
ARIAL
1001
ACAD
1000
MTEXTBEGIN
1070
    44
1040
0.7979999999999999
1000
MTEXTEND
  0
MTEXT
  5
F4
330
1F
100
AcDbEntity
  8
DI-TEXTOS_DO_QUADRO
100
AcDbMText
 10
17.023
 20
-2.266106
 30
0.0
 40
0.2118
 41
0.50832
 71
     9
 72
     1
  1
35
  7
ARIAL
1001
ACAD
1000
MTEXTBEGIN
1070
    44
1040
0.7979999999999999
1000
MTEXTEND
  0
MTEXT
  5
F5
330
1F
100
AcDbEntity
  8
DI-TEXTOS_DO_QUADRO
100
AcDbMText
 10
18.135
 20
-2.266106
 30
0.0
 40
0.2118
 41
1.2708
 71
     9
 72
     1
  1
100.0
  7
ARIAL
1001
ACAD
1000
MTEXTBEGIN
1070
    44
1040
0.7979999999999999
1000
MTEXTEND
  0
MTEXT
  5
F6
330
1F
100
AcDbEntity
  8
DI-TEXTOS_DO_QUADRO
100
AcDbMText
 10
19.009
 20
-2.266106
 30
0.0
 40
0.2118
 41
0.7624799999999999
 71
     8
 72
     1
  1
ø4"
  7
ARIAL
1001
ACAD
1000
MTEXTBEGIN
1070
    44
1040
0.7979999999999999
1000
MTEXTEND
  0
LINE
  5
F7
330
1F
100
AcDbEntity
  8
DI-LINHAS_DO_QUADRO
  6
CONTINUOUS
100
AcDbLine
 10
-6.48637
 20
-2.73222
 30
0.0
 11
19.7239
 21
-2.73222
 31
0.0
  0
MTEXT
  5
F8
330
1F
100
AcDbEntity
  8
DI-TEXTOS_DO_QUADRO
100
AcDbMText
 10
-5.851
 20
-2.647106
 30
0.0
 40
0.2118
 41
0.7624799999999999
 71
     8
 72
     1
  1
QD3
  7
ARIAL
1001
ACAD
1000
MTEXTBEGIN
1070
    44
1040
0.7979999999999999
1000
MTEXTEND
  0
MTEXT
  5
F9
330
1F
100
AcDbEntity
  8
DI-TEXTOS_DO_QUADRO
100
AcDbMText
 10
-5.057
 20
-2.647106
 30
0.0
 40
0.2118
 41
1.52496
 71
     7
 72
     1
  1
Pav. 1
  7
ARIAL
1001
ACAD
1000
MTEXTBEGIN
1070
    44
1040
0.7979999999999999
1000
MTEXTEND
  0
MTEXT
  5
FA
330
1F
100
AcDbEntity
  8
DI-TEXTOS_DO_QUADRO
100
AcDbMText
 10
-2.118
 20
-2.647106
 30
0.0
 40
0.2118
 41
1.52496
 71
     8
 72
     1
  1
3F+N+T
  7
ARIAL
1001
ACAD
1000
MTEXTBEGIN
1070
    44
1040
0.7979999999999999
1000
MTEXTEND
  0
MTEXT
  5
FB
330
1F
100
AcDbEntity
  8
DI-TEXTOS_DO_QUADRO
100
AcDbMText
 10
-0.371
 20
-2.647106
 30
0.0
 40
0.2118
 41
2.79576
 71
     8
 72
     1
  1
380 / 220 V
  7
ARIAL
1001
ACAD
1000
MTEXTBEGIN
1070
    44
1040
0.7979999999999999
1000
MTEXTEND
  0
MTEXT
  5
FC
330
1F
100
AcDbEntity
  8
DI-TEXTOS_DO_QUADRO
100
AcDbMText
 10
2.568
 20
-2.647106
 30
0.0
 40
0.2118
 41
1.2708
 71
     9
 72
     1
  1
33312
  7
ARIAL
1001
ACAD
1000
MTEXTBEGIN
1070
    44
1040
0.7979999999999999
1000
MTEXTEND
  0
MTEXT
  5
FD
330
1F
100
AcDbEntity
  8
DI-TEXTOS_DO_QUADRO
100
AcDbMText
 10
4.157
 20
-2.647106
 30
0.0
 40
0.2118
 41
1.2708
 71
     9
 72
     1
  1
10973
  7
ARIAL
1001
ACAD
1000
MTEXTBEGIN
1070
    44
1040
0.7979999999999999
1000
MTEXTEND
  0
MTEXT
  5
FE
330
1F
100
AcDbEntity
  8
DI-TEXTOS_DO_QUADRO
100
AcDbMText
 10
5.745
 20
-2.647106
 30
0.0
 40
0.2118
 41
1.2708
 71
     9
 72
     1
  1
11365
  7
ARIAL
1001
ACAD
1000
MTEXTBEGIN
1070
    44
1040
0.7979999999999999
1000
MTEXTEND
  0
MTEXT
  5
FF
330
1F
100
AcDbEntity
  8
DI-TEXTOS_DO_QUADRO
100
AcDbMText
 10
7.334
 20
-2.647106
 30
0.0
 40
0.2118
 41
1.2708
 71
     9
 72
     1
  1
10973
  7
ARIAL
1001
ACAD
1000
MTEXTBEGIN
1070
    44
1040
0.7979999999999999
1000
MTEXTEND
  0
MTEXT
  5
100
330
1F
100
AcDbEntity
  8
DI-TEXTOS_DO_QUADRO
100
AcDbMText
 10
9.716
 20
-2.647106
 30
0.0
 40
0.2118
 41
1.2708
 71
     9
 72
     1
  1
37202
  7
ARIAL
1001
ACAD
1000
MTEXTBEGIN
1070
    44
1040
0.7979999999999999
1000
MTEXTEND
  0
MTEXT
  5
101
330
1F
100
AcDbEntity
  8
DI-TEXTOS_DO_QUADRO
100
AcDbMText
 10
11.781
 20
-2.647106
 30
0.0
 40
0.2118
 41
1.2708
 71
     9
 72
     1
  1
12193
  7
ARIAL
1001
ACAD
1000
MTEXTBEGIN
1070
    44
1040
0.7979999999999999
1000
MTEXTEND
  0
MTEXT
  5
102
330
1F
100
AcDbEntity
  8
DI-TEXTOS_DO_QUADRO
100
AcDbMText
 10
13.846
 20
-2.647106
 30
0.0
 40
0.2118
 41
1.2708
 71
     9
 72
     1
  1
12817
  7
ARIAL
1001
ACAD
1000
MTEXTBEGIN
1070
    44
1040
0.7979999999999999
1000
MTEXTEND
  0
MTEXT
  5
103
330
1F
100
AcDbEntity
  8
DI-TEXTOS_DO_QUADRO
100
AcDbMText
 10
15.912
 20
-2.647106
 30
0.0
 40
0.2118
 41
1.2708
 71
     9
 72
     1
  1
12193
  7
ARIAL
1001
ACAD
1000
MTEXTBEGIN
1070
    44
1040
0.7979999999999999
1000
MTEXTEND
  0
MTEXT
  5
104
330
1F
100
AcDbEntity
  8
DI-TEXTOS_DO_QUADRO
100
AcDbMText
 10
17.023
 20
-2.647106
 30
0.0
 40
0.2118
 41
0.50832
 71
     9
 72
     1
  1
16
  7
ARIAL
1001
ACAD
1000
MTEXTBEGIN
1070
    44
1040
0.7979999999999999
1000
MTEXTEND
  0
MTEXT
  5
105
330
1F
100
AcDbEntity
  8
DI-TEXTOS_DO_QUADRO
100
AcDbMText
 10
18.135
 20
-2.647106
 30
0.0
 40
0.2118
 41
1.01664
 71
     9
 72
     1
  1
63.0
  7
ARIAL
1001
ACAD
1000
MTEXTBEGIN
1070
    44
1040
0.7979999999999999
1000
MTEXTEND
  0
MTEXT
  5
106
330
1F
100
AcDbEntity
  8
DI-TEXTOS_DO_QUADRO
100
AcDbMText
 10
19.009
 20
-2.647106
 30
0.0
 40
0.2118
 41
0.7624799999999999
 71
     8
 72
     1
  1
ø3"
  7
ARIAL
1001
ACAD
1000
MTEXTBEGIN
1070
    44
1040
0.7979999999999999
1000
MTEXTEND
  0
LINE
  5
107
330
1F
100
AcDbEntity
  8
DI-LINHAS_DO_QUADRO
  6
CONTINUOUS
100
AcDbLine
 10
-6.48637
 20
-3.11346
 30
0.0
 11
19.7239
 21
-3.11346
 31
0.0
  0
MTEXT
  5
108
330
1F
100
AcDbEntity
  8
DI-TEXTOS_DO_QUADRO
100
AcDbMText
 10
-5.851
 20
-3.029106
 30
0.0
 40
0.2118
 41
0.7624799999999999
 71
     8
 72
     1
  1
QD4
  7
ARIAL
1001
ACAD
1000
MTEXTBEGIN
1070
    44
1040
0.7979999999999999
1000
MTEXTEND
  0
MTEXT
  5
109
330
1F
100
AcDbEntity
  8
DI-TEXTOS_DO_QUADRO
100
AcDbMText
 10
-5.057
 20
-3.029106
 30
0.0
 40
0.2118
 41
1.52496
 71
     7
 72
     1
  1
Pav. 2
  7
ARIAL
1001
ACAD
1000
MTEXTBEGIN
1070
    44
1040
0.7979999999999999
1000
MTEXTEND
  0
MTEXT
  5
10A
330
1F
100
AcDbEntity
  8
DI-TEXTOS_DO_QUADRO
100
AcDbMText
 10
-2.118
 20
-3.029106
 30
0.0
 40
0.2118
 41
1.52496
 71
     8
 72
     1
  1
3F+N+T
  7
ARIAL
1001
ACAD
1000
MTEXTBEGIN
1070
    44
1040
0.7979999999999999
1000
MTEXTEND
  0
MTEXT
  5
10B
330
1F
100
AcDbEntity
  8
DI-TEXTOS_DO_QUADRO
100
AcDbMText
 10
-0.371
 20
-3.029106
 30
0.0
 40
0.2118
 41
2.79576
 71
     8
 72
     1
  1
380 / 220 V
  7
ARIAL
1001
ACAD
1000
MTEXTBEGIN
1070
    44
1040
0.7979999999999999
1000
MTEXTEND
  0
MTEXT
  5
10C
330
1F
100
AcDbEntity
  8
DI-TEXTOS_DO_QUADRO
100
AcDbMText
 10
2.568
 20
-3.029106
 30
0.0
 40
0.2118
 41
1.2708
 71
     9
 72
     1
  1
25220
  7
ARIAL
1001
ACAD
1000
MTEXTBEGIN
1070
    44
1040
0.7979999999999999
1000
MTEXTEND
  0
MTEXT
  5
10D
330
1F
100
AcDbEntity
  8
DI-TEXTOS_DO_QUADRO
100
AcDbMText
 10
4.157
 20
-3.029106
 30
0.0
 40
0.2118
 41
1.01664
 71
     9
 72
     1
  1
8500
  7
ARIAL
1001
ACAD
1000
MTEXTBEGIN
1070
    44
1040
0.7979999999999999
1000
MTEXTEND
  0
MTEXT
  5
10E
330
1F
100
AcDbEntity
  8
DI-TEXTOS_DO_QUADRO
100
AcDbMText
 10
5.745
 20
-3.029106
 30
0.0
 40
0.2118
 41
1.01664
 71
     9
 72
     1
  1
8580
  7
ARIAL
1001
ACAD
1000
MTEXTBEGIN
1070
    44
1040
0.7979999999999999
1000
MTEXTEND
  0
MTEXT
  5
10F
330
1F
100
AcDbEntity
  8
DI-TEXTOS_DO_QUADRO
100
AcDbMText
 10
7.334
 20
-3.029106
 30
0.0
 40
0.2118
 41
1.01664
 71
     9
 72
     1
  1
8140
  7
ARIAL
1001
ACAD
1000
MTEXTBEGIN
1070
    44
1040
0.7979999999999999
1000
MTEXTEND
  0
MTEXT
  5
110
330
1F
100
AcDbEntity
  8
DI-TEXTOS_DO_QUADRO
100
AcDbMText
 10
9.716
 20
-3.029106
 30
0.0
 40
0.2118
 41
1.2708
 71
     9
 72
     1
  1
28167
  7
ARIAL
1001
ACAD
1000
MTEXTBEGIN
1070
    44
1040
0.7979999999999999
1000
MTEXTEND
  0
MTEXT
  5
111
330
1F
100
AcDbEntity
  8
DI-TEXTOS_DO_QUADRO
100
AcDbMText
 10
11.781
 20
-3.029106
 30
0.0
 40
0.2118
 41
1.01664
 71
     9
 72
     1
  1
9444
  7
ARIAL
1001
ACAD
1000
MTEXTBEGIN
1070
    44
1040
0.7979999999999999
1000
MTEXTEND
  0
MTEXT
  5
112
330
1F
100
AcDbEntity
  8
DI-TEXTOS_DO_QUADRO
100
AcDbMText
 10
13.846
 20
-3.029106
 30
0.0
 40
0.2118
 41
1.01664
 71
     9
 72
     1
  1
9678
  7
ARIAL
1001
ACAD
1000
MTEXTBEGIN
1070
    44
1040
0.7979999999999999
1000
MTEXTEND
  0
MTEXT
  5
113
330
1F
100
AcDbEntity
  8
DI-TEXTOS_DO_QUADRO
100
AcDbMText
 10
15.912
 20
-3.029106
 30
0.0
 40
0.2118
 41
1.01664
 71
     9
 72
     1
  1
9044
  7
ARIAL
1001
ACAD
1000
MTEXTBEGIN
1070
    44
1040
0.7979999999999999
1000
MTEXTEND
  0
MTEXT
  5
114
330
1F
100
AcDbEntity
  8
DI-TEXTOS_DO_QUADRO
100
AcDbMText
 10
17.023
 20
-3.029106
 30
0.0
 40
0.2118
 41
0.50832
 71
     9
 72
     1
  1
10
  7
ARIAL
1001
ACAD
1000
MTEXTBEGIN
1070
    44
1040
0.7979999999999999
1000
MTEXTEND
  0
MTEXT
  5
115
330
1F
100
AcDbEntity
  8
DI-TEXTOS_DO_QUADRO
100
AcDbMText
 10
18.135
 20
-3.029106
 30
0.0
 40
0.2118
 41
1.01664
 71
     9
 72
     1
  1
45.0
  7
ARIAL
1001
ACAD
1000
MTEXTBEGIN
1070
    44
1040
0.7979999999999999
1000
MTEXTEND
  0
MTEXT
  5
116
330
1F
100
AcDbEntity
  8
DI-TEXTOS_DO_QUADRO
100
AcDbMText
 10
19.009
 20
-3.029106
 30
0.0
 40
0.2118
 41
0.7624799999999999
 71
     8
 72
     1
  1
ø3"
  7
ARIAL
1001
ACAD
1000
MTEXTBEGIN
1070
    44
1040
0.7979999999999999
1000
MTEXTEND
  0
LINE
  5
117
330
1F
100
AcDbEntity
  8
DI-LINHAS_DO_QUADRO
  6
CONTINUOUS
100
AcDbLine
 10
-6.48637
 20
-3.4947
 30
0.0
 11
19.7239
 21
-3.4947
 31
0.0
  0
MTEXT
  5
118
330
1F
100
AcDbEntity
  8
DI-TEXTOS_DO_QUADRO
100
AcDbMText
 10
-5.851
 20
-3.410106
 30
0.0
 40
0.2118
 41
0.7624799999999999
 71
     8
 72
     1
  1
QD5
  7
ARIAL
1001
ACAD
1000
MTEXTBEGIN
1070
    44
1040
0.7979999999999999
1000
MTEXTEND
  0
MTEXT
  5
119
330
1F
100
AcDbEntity
  8
DI-TEXTOS_DO_QUADRO
100
AcDbMText
 10
-5.057
 20
-3.410106
 30
0.0
 40
0.2118
 41
1.52496
 71
     7
 72
     1
  1
Pav. 1
  7
ARIAL
1001
ACAD
1000
MTEXTBEGIN
1070
    44
1040
0.7979999999999999
1000
MTEXTEND
  0
MTEXT
  5
11A
330
1F
100
AcDbEntity
  8
DI-TEXTOS_DO_QUADRO
100
AcDbMText
 10
-2.118
 20
-3.410106
 30
0.0
 40
0.2118
 41
1.52496
 71
     8
 72
     1
  1
3F+N+T
  7
ARIAL
1001
ACAD
1000
MTEXTBEGIN
1070
    44
1040
0.7979999999999999
1000
MTEXTEND
  0
MTEXT
  5
11B
330
1F
100
AcDbEntity
  8
DI-TEXTOS_DO_QUADRO
100
AcDbMText
 10
-0.371
 20
-3.410106
 30
0.0
 40
0.2118
 41
2.79576
 71
     8
 72
     1
  1
380 / 220 V
  7
ARIAL
1001
ACAD
1000
MTEXTBEGIN
1070
    44
1040
0.7979999999999999
1000
MTEXTEND
  0
MTEXT
  5
11C
330
1F
100
AcDbEntity
  8
DI-TEXTOS_DO_QUADRO
100
AcDbMText
 10
2.568
 20
-3.410106
 30
0.0
 40
0.2118
 41
1.2708
 71
     9
 72
     1
  1
33472
  7
ARIAL
1001
ACAD
1000
MTEXTBEGIN
1070
    44
1040
0.7979999999999999
1000
MTEXTEND
  0
MTEXT
  5
11D
330
1F
100
AcDbEntity
  8
DI-TEXTOS_DO_QUADRO
100
AcDbMText
 10
4.157
 20
-3.410106
 30
0.0
 40
0.2118
 41
1.2708
 71
     9
 72
     1
  1
10805
  7
ARIAL
1001
ACAD
1000
MTEXTBEGIN
1070
    44
1040
0.7979999999999999
1000
MTEXTEND
  0
MTEXT
  5
11E
330
1F
100
AcDbEntity
  8
DI-TEXTOS_DO_QUADRO
100
AcDbMText
 10
5.745
 20
-3.410106
 30
0.0
 40
0.2118
 41
1.2708
 71
     9
 72
     1
  1
12053
  7
ARIAL
1001
ACAD
1000
MTEXTBEGIN
1070
    44
1040
0.7979999999999999
1000
MTEXTEND
  0
MTEXT
  5
11F
330
1F
100
AcDbEntity
  8
DI-TEXTOS_DO_QUADRO
100
AcDbMText
 10
7.334
 20
-3.410106
 30
0.0
 40
0.2118
 41
1.2708
 71
     9
 72
     1
  1
10613
  7
ARIAL
1001
ACAD
1000
MTEXTBEGIN
1070
    44
1040
0.7979999999999999
1000
MTEXTEND
  0
MTEXT
  5
120
330
1F
100
AcDbEntity
  8
DI-TEXTOS_DO_QUADRO
100
AcDbMText
 10
9.716
 20
-3.410106
 30
0.0
 40
0.2118
 41
1.2708
 71
     9
 72
     1
  1
37343
  7
ARIAL
1001
ACAD
1000
MTEXTBEGIN
1070
    44
1040
0.7979999999999999
1000
MTEXTEND
  0
MTEXT
  5
121
330
1F
100
AcDbEntity
  8
DI-TEXTOS_DO_QUADRO
100
AcDbMText
 10
11.781
 20
-3.410106
 30
0.0
 40
0.2118
 41
1.2708
 71
     9
 72
     1
  1
12158
  7
ARIAL
1001
ACAD
1000
MTEXTBEGIN
1070
    44
1040
0.7979999999999999
1000
MTEXTEND
  0
MTEXT
  5
122
330
1F
100
AcDbEntity
  8
DI-TEXTOS_DO_QUADRO
100
AcDbMText
 10
13.846
 20
-3.410106
 30
0.0
 40
0.2118
 41
1.2708
 71
     9
 72
     1
  1
13393
  7
ARIAL
1001
ACAD
1000
MTEXTBEGIN
1070
    44
1040
0.7979999999999999
1000
MTEXTEND
  0
MTEXT
  5
123
330
1F
100
AcDbEntity
  8
DI-TEXTOS_DO_QUADRO
100
AcDbMText
 10
15.912
 20
-3.410106
 30
0.0
 40
0.2118
 41
1.2708
 71
     9
 72
     1
  1
11793
  7
ARIAL
1001
ACAD
1000
MTEXTBEGIN
1070
    44
1040
0.7979999999999999
1000
MTEXTEND
  0
MTEXT
  5
124
330
1F
100
AcDbEntity
  8
DI-TEXTOS_DO_QUADRO
100
AcDbMText
 10
17.023
 20
-3.410106
 30
0.0
 40
0.2118
 41
0.50832
 71
     9
 72
     1
  1
16
  7
ARIAL
1001
ACAD
1000
MTEXTBEGIN
1070
    44
1040
0.7979999999999999
1000
MTEXTEND
  0
MTEXT
  5
125
330
1F
100
AcDbEntity
  8
DI-TEXTOS_DO_QUADRO
100
AcDbMText
 10
18.135
 20
-3.410106
 30
0.0
 40
0.2118
 41
1.01664
 71
     9
 72
     1
  1
63.0
  7
ARIAL
1001
ACAD
1000
MTEXTBEGIN
1070
    44
1040
0.7979999999999999
1000
MTEXTEND
  0
MTEXT
  5
126
330
1F
100
AcDbEntity
  8
DI-TEXTOS_DO_QUADRO
100
AcDbMText
 10
19.009
 20
-3.410106
 30
0.0
 40
0.2118
 41
1.77912
 71
     8
 72
     1
  1
ø1.1/2"
  7
ARIAL
1001
ACAD
1000
MTEXTBEGIN
1070
    44
1040
0.7979999999999999
1000
MTEXTEND
  0
LINE
  5
127
330
1F
100
AcDbEntity
  8
DI-LINHAS_DO_QUADRO
  6
CONTINUOUS
100
AcDbLine
 10
-6.48637
 20
-3.87594
 30
0.0
 11
19.7239
 21
-3.87594
 31
0.0
  0
MTEXT
  5
128
330
1F
100
AcDbEntity
  8
DI-TEXTOS_DO_QUADRO
100
AcDbMText
 10
-5.851
 20
-3.791106
 30
0.0
 40
0.2118
 41
0.7624799999999999
 71
     8
 72
     1
  1
QD6
  7
ARIAL
1001
ACAD
1000
MTEXTBEGIN
1070
    44
1040
0.7979999999999999
1000
MTEXTEND
  0
MTEXT
  5
129
330
1F
100
AcDbEntity
  8
DI-TEXTOS_DO_QUADRO
100
AcDbMText
 10
-5.057
 20
-3.791106
 30
0.0
 40
0.2118
 41
1.52496
 71
     7
 72
     1
  1
Pav. 2
  7
ARIAL
1001
ACAD
1000
MTEXTBEGIN
1070
    44
1040
0.7979999999999999
1000
MTEXTEND
  0
MTEXT
  5
12A
330
1F
100
AcDbEntity
  8
DI-TEXTOS_DO_QUADRO
100
AcDbMText
 10
-2.118
 20
-3.791106
 30
0.0
 40
0.2118
 41
1.52496
 71
     8
 72
     1
  1
3F+N+T
  7
ARIAL
1001
ACAD
1000
MTEXTBEGIN
1070
    44
1040
0.7979999999999999
1000
MTEXTEND
  0
MTEXT
  5
12B
330
1F
100
AcDbEntity
  8
DI-TEXTOS_DO_QUADRO
100
AcDbMText
 10
-0.371
 20
-3.791106
 30
0.0
 40
0.2118
 41
2.79576
 71
     8
 72
     1
  1
380 / 220 V
  7
ARIAL
1001
ACAD
1000
MTEXTBEGIN
1070
    44
1040
0.7979999999999999
1000
MTEXTEND
  0
MTEXT
  5
12C
330
1F
100
AcDbEntity
  8
DI-TEXTOS_DO_QUADRO
100
AcDbMText
 10
2.568
 20
-3.791106
 30
0.0
 40
0.2118
 41
1.2708
 71
     9
 72
     1
  1
26256
  7
ARIAL
1001
ACAD
1000
MTEXTBEGIN
1070
    44
1040
0.7979999999999999
1000
MTEXTEND
  0
MTEXT
  5
12D
330
1F
100
AcDbEntity
  8
DI-TEXTOS_DO_QUADRO
100
AcDbMText
 10
4.157
 20
-3.791106
 30
0.0
 40
0.2118
 41
1.01664
 71
     9
 72
     1
  1
8356
  7
ARIAL
1001
ACAD
1000
MTEXTBEGIN
1070
    44
1040
0.7979999999999999
1000
MTEXTEND
  0
MTEXT
  5
12E
330
1F
100
AcDbEntity
  8
DI-TEXTOS_DO_QUADRO
100
AcDbMText
 10
5.745
 20
-3.791106
 30
0.0
 40
0.2118
 41
1.01664
 71
     9
 72
     1
  1
9400
  7
ARIAL
1001
ACAD
1000
MTEXTBEGIN
1070
    44
1040
0.7979999999999999
1000
MTEXTEND
  0
MTEXT
  5
12F
330
1F
100
AcDbEntity
  8
DI-TEXTOS_DO_QUADRO
100
AcDbMText
 10
7.334
 20
-3.791106
 30
0.0
 40
0.2118
 41
1.01664
 71
     9
 72
     1
  1
8500
  7
ARIAL
1001
ACAD
1000
MTEXTBEGIN
1070
    44
1040
0.7979999999999999
1000
MTEXTEND
  0
MTEXT
  5
130
330
1F
100
AcDbEntity
  8
DI-TEXTOS_DO_QUADRO
100
AcDbMText
 10
9.716
 20
-3.791106
 30
0.0
 40
0.2118
 41
1.2708
 71
     9
 72
     1
  1
29304
  7
ARIAL
1001
ACAD
1000
MTEXTBEGIN
1070
    44
1040
0.7979999999999999
1000
MTEXTEND
  0
MTEXT
  5
131
330
1F
100
AcDbEntity
  8
DI-TEXTOS_DO_QUADRO
100
AcDbMText
 10
11.781
 20
-3.791106
 30
0.0
 40
0.2118
 41
1.01664
 71
     9
 72
     1
  1
9415
  7
ARIAL
1001
ACAD
1000
MTEXTBEGIN
1070
    44
1040
0.7979999999999999
1000
MTEXTEND
  0
MTEXT
  5
132
330
1F
100
AcDbEntity
  8
DI-TEXTOS_DO_QUADRO
100
AcDbMText
 10
13.846
 20
-3.791106
 30
0.0
 40
0.2118
 41
1.2708
 71
     9
 72
     1
  1
10444
  7
ARIAL
1001
ACAD
1000
MTEXTBEGIN
1070
    44
1040
0.7979999999999999
1000
MTEXTEND
  0
MTEXT
  5
133
330
1F
100
AcDbEntity
  8
DI-TEXTOS_DO_QUADRO
100
AcDbMText
 10
15.912
 20
-3.791106
 30
0.0
 40
0.2118
 41
1.01664
 71
     9
 72
     1
  1
9444
  7
ARIAL
1001
ACAD
1000
MTEXTBEGIN
1070
    44
1040
0.7979999999999999
1000
MTEXTEND
  0
MTEXT
  5
134
330
1F
100
AcDbEntity
  8
DI-TEXTOS_DO_QUADRO
100
AcDbMText
 10
17.023
 20
-3.791106
 30
0.0
 40
0.2118
 41
0.50832
 71
     9
 72
     1
  1
10
  7
ARIAL
1001
ACAD
1000
MTEXTBEGIN
1070
    44
1040
0.7979999999999999
1000
MTEXTEND
  0
MTEXT
  5
135
330
1F
100
AcDbEntity
  8
DI-TEXTOS_DO_QUADRO
100
AcDbMText
 10
18.135
 20
-3.791106
 30
0.0
 40
0.2118
 41
1.01664
 71
     9
 72
     1
  1
45.0
  7
ARIAL
1001
ACAD
1000
MTEXTBEGIN
1070
    44
1040
0.7979999999999999
1000
MTEXTEND
  0
MTEXT
  5
136
330
1F
100
AcDbEntity
  8
DI-TEXTOS_DO_QUADRO
100
AcDbMText
 10
19.009
 20
-3.791106
 30
0.0
 40
0.2118
 41
1.77912
 71
     8
 72
     1
  1
ø1.1/2"
  7
ARIAL
1001
ACAD
1000
MTEXTBEGIN
1070
    44
1040
0.7979999999999999
1000
MTEXTEND
  0
LINE
  5
137
330
1F
100
AcDbEntity
  8
DI-LINHAS_DO_QUADRO
  6
CONTINUOUS
100
AcDbLine
 10
-6.48637
 20
-4.25718
 30
0.0
 11
19.7239
 21
-4.25718
 31
0.0
  0
MTEXT
  5
138
330
1F
100
AcDbEntity
  8
DI-TEXTOS_DO_QUADRO
100
AcDbMText
 10
-5.851000000000001
 20
-4.172106
 30
0.0
 40
0.2118
 41
0.50832
 71
     8
 72
     1
  1
QG
  7
ARIAL
1001
ACAD
1000
MTEXTBEGIN
1070
    44
1040
0.7979999999999999
1000
MTEXTEND
  0
MTEXT
  5
139
330
1F
100
AcDbEntity
  8
DI-TEXTOS_DO_QUADRO
100
AcDbMText
 10
-2.118
 20
-4.172106
 30
0.0
 40
0.2118
 41
1.52496
 71
     8
 72
     1
  1
3F+N+T
  7
ARIAL
1001
ACAD
1000
MTEXTBEGIN
1070
    44
1040
0.7979999999999999
1000
MTEXTEND
  0
MTEXT
  5
13A
330
1F
100
AcDbEntity
  8
DI-TEXTOS_DO_QUADRO
100
AcDbMText
 10
-0.371
 20
-4.172106
 30
0.0
 40
0.2118
 41
2.79576
 71
     8
 72
     1
  1
380 / 220 V
  7
ARIAL
1001
ACAD
1000
MTEXTBEGIN
1070
    44
1040
0.7979999999999999
1000
MTEXTEND
  0
MTEXT
  5
13B
330
1F
100
AcDbEntity
  8
DI-TEXTOS_DO_QUADRO
100
AcDbMText
 10
2.568
 20
-4.172106
 30
0.0
 40
0.2118
 41
1.52496
 71
     9
 72
     1
  1
182288
  7
ARIAL
1001
ACAD
1000
MTEXTBEGIN
1070
    44
1040
0.7979999999999999
1000
MTEXTEND
  0
MTEXT
  5
13C
330
1F
100
AcDbEntity
  8
DI-TEXTOS_DO_QUADRO
100
AcDbMText
 10
4.157
 20
-4.172106
 30
0.0
 40
0.2118
 41
1.2708
 71
     9
 72
     1
  1
60151
  7
ARIAL
1001
ACAD
1000
MTEXTBEGIN
1070
    44
1040
0.7979999999999999
1000
MTEXTEND
  0
MTEXT
  5
13D
330
1F
100
AcDbEntity
  8
DI-TEXTOS_DO_QUADRO
100
AcDbMText
 10
5.745
 20
-4.172106
 30
0.0
 40
0.2118
 41
1.2708
 71
     9
 72
     1
  1
63207
  7
ARIAL
1001
ACAD
1000
MTEXTBEGIN
1070
    44
1040
0.7979999999999999
1000
MTEXTEND
  0
MTEXT
  5
13E
330
1F
100
AcDbEntity
  8
DI-TEXTOS_DO_QUADRO
100
AcDbMText
 10
7.334
 20
-4.172106
 30
0.0
 40
0.2118
 41
1.2708
 71
     9
 72
     1
  1
58929
  7
ARIAL
1001
ACAD
1000
MTEXTBEGIN
1070
    44
1040
0.7979999999999999
1000
MTEXTEND
  0
MTEXT
  5
13F
330
1F
100
AcDbEntity
  8
DI-TEXTOS_DO_QUADRO
100
AcDbMText
 10
9.716
 20
-4.172106
 30
0.0
 40
0.2118
 41
1.52496
 71
     9
 72
     1
  1
184572
  7
ARIAL
1001
ACAD
1000
MTEXTBEGIN
1070
    44
1040
0.7979999999999999
1000
MTEXTEND
  0
MTEXT
  5
140
330
1F
100
AcDbEntity
  8
DI-TEXTOS_DO_QUADRO
100
AcDbMText
 10
11.781
 20
-4.172106
 30
0.0
 40
0.2118
 41
1.2708
 71
     9
 72
     1
  1
59429
  7
ARIAL
1001
ACAD
1000
MTEXTBEGIN
1070
    44
1040
0.7979999999999999
1000
MTEXTEND
  0
MTEXT
  5
141
330
1F
100
AcDbEntity
  8
DI-TEXTOS_DO_QUADRO
100
AcDbMText
 10
13.846
 20
-4.172106
 30
0.0
 40
0.2118
 41
1.2708
 71
     9
 72
     1
  1
64100
  7
ARIAL
1001
ACAD
1000
MTEXTBEGIN
1070
    44
1040
0.7979999999999999
1000
MTEXTEND
  0
MTEXT
  5
142
330
1F
100
AcDbEntity
  8
DI-TEXTOS_DO_QUADRO
100
AcDbMText
 10
15.912
 20
-4.172106
 30
0.0
 40
0.2118
 41
1.2708
 71
     9
 72
     1
  1
61043
  7
ARIAL
1001
ACAD
1000
MTEXTBEGIN
1070
    44
1040
0.7979999999999999
1000
MTEXTEND
  0
MTEXT
  5
143
330
1F
100
AcDbEntity
  8
DI-TEXTOS_DO_QUADRO
100
AcDbMText
 10
17.023
 20
-4.172106
 30
0.0
 40
0.2118
 41
0.7624799999999999
 71
     9
 72
     1
  1
185
  7
ARIAL
1001
ACAD
1000
MTEXTBEGIN
1070
    44
1040
0.7979999999999999
1000
MTEXTEND
  0
MTEXT
  5
144
330
1F
100
AcDbEntity
  8
DI-TEXTOS_DO_QUADRO
100
AcDbMText
 10
18.135
 20
-4.172106
 30
0.0
 40
0.2118
 41
1.2708
 71
     9
 72
     1
  1
300.0
  7
ARIAL
1001
ACAD
1000
MTEXTBEGIN
1070
    44
1040
0.7979999999999999
1000
MTEXTEND
  0
MTEXT
  5
145
330
1F
100
AcDbEntity
  8
DI-TEXTOS_DO_QUADRO
100
AcDbMText
 10
19.009
 20
-4.172106
 30
0.0
 40
0.2118
 41
0.7624799999999999
 71
     8
 72
     1
  1
ø5"
  7
ARIAL
1001
ACAD
1000
MTEXTBEGIN
1070
    44
1040
0.7979999999999999
1000
MTEXTEND
  0
LINE
  5
146
330
1F
100
AcDbEntity
  8
DI-LINHAS_DO_QUADRO
  6
CONTINUOUS
100
AcDbLine
 10
-6.48637
 20
-0.82602
 30
0.0
 11
-6.48637
 21
-4.25718
 31
0.0
  0
LINE
  5
147
330
1F
100
AcDbEntity
  8
DI-LINHAS_DO_QUADRO
  6
CONTINUOUS
100
AcDbLine
 10
-5.21557
 20
-0.82602
 30
0.0
 11
-5.21557
 21
-4.25718
 31
0.0
  0
LINE
  5
148
330
1F
100
AcDbEntity
  8
DI-LINHAS_DO_QUADRO
  6
CONTINUOUS
100
AcDbLine
 10
-2.83282
 20
-0.82602
 30
0.0
 11
-2.83282
 21
-4.25718
 31
0.0
  0
LINE
  5
149
330
1F
100
AcDbEntity
  8
DI-LINHAS_DO_QUADRO
  6
CONTINUOUS
100
AcDbLine
 10
-1.40317
 20
-0.82602
 30
0.0
 11
-1.40317
 21
-4.25718
 31
0.0
  0
LINE
  5
14A
330
1F
100
AcDbEntity
  8
DI-LINHAS_DO_QUADRO
  6
CONTINUOUS
100
AcDbLine
 10
0.661876
 20
-0.82602
 30
0.0
 11
0.661876
 21
-4.25718
 31
0.0
  0
LINE
  5
14B
330
1F
100
AcDbEntity
  8
DI-LINHAS_DO_QUADRO
  6
CONTINUOUS
100
AcDbLine
 10
2.72693
 20
-0.82602
 30
0.0
 11
2.72693
 21
-4.25718
 31
0.0
  0
LINE
  5
14C
330
1F
100
AcDbEntity
  8
DI-LINHAS_DO_QUADRO
  6
CONTINUOUS
100
AcDbLine
 10
4.31543
 20
-0.82602
 30
0.0
 11
4.31543
 21
-4.25718
 31
0.0
  0
LINE
  5
14D
330
1F
100
AcDbEntity
  8
DI-LINHAS_DO_QUADRO
  6
CONTINUOUS
100
AcDbLine
 10
5.90393
 20
-0.82602
 30
0.0
 11
5.90393
 21
-4.25718
 31
0.0
  0
LINE
  5
14E
330
1F
100
AcDbEntity
  8
DI-LINHAS_DO_QUADRO
  6
CONTINUOUS
100
AcDbLine
 10
7.49243
 20
-0.82602
 30
0.0
 11
7.49243
 21
-4.25718
 31
0.0
  0
LINE
  5
14F
330
1F
100
AcDbEntity
  8
DI-LINHAS_DO_QUADRO
  6
CONTINUOUS
100
AcDbLine
 10
9.87518
 20
-0.82602
 30
0.0
 11
9.87518
 21
-4.25718
 31
0.0
  0
LINE
  5
150
330
1F
100
AcDbEntity
  8
DI-LINHAS_DO_QUADRO
  6
CONTINUOUS
100
AcDbLine
 10
11.9402
 20
-0.82602
 30
0.0
 11
11.9402
 21
-4.25718
 31
0.0
  0
LINE
  5
151
330
1F
100
AcDbEntity
  8
DI-LINHAS_DO_QUADRO
  6
CONTINUOUS
100
AcDbLine
 10
14.0053
 20
-0.82602
 30
0.0
 11
14.0053
 21
-4.25718
 31
0.0
  0
LINE
  5
152
330
1F
100
AcDbEntity
  8
DI-LINHAS_DO_QUADRO
  6
CONTINUOUS
100
AcDbLine
 10
16.0703
 20
-0.82602
 30
0.0
 11
16.0703
 21
-4.25718
 31
0.0
  0
LINE
  5
153
330
1F
100
AcDbEntity
  8
DI-LINHAS_DO_QUADRO
  6
CONTINUOUS
100
AcDbLine
 10
17.1823
 20
-0.82602
 30
0.0
 11
17.1823
 21
-4.25718
 31
0.0
  0
LINE
  5
154
330
1F
100
AcDbEntity
  8
DI-LINHAS_DO_QUADRO
  6
CONTINUOUS
100
AcDbLine
 10
18.2942
 20
-0.82602
 30
0.0
 11
18.2942
 21
-4.25718
 31
0.0
  0
LINE
  5
155
330
1F
100
AcDbEntity
  8
DI-LINHAS_DO_QUADRO
  6
CONTINUOUS
100
AcDbLine
 10
19.7239
 20
-0.82602
 30
0.0
 11
19.7239
 21
-4.25718
 31
0.0
  0
ENDSEC
  0
SECTION
  2
OBJECTS
  0
DICTIONARY
  5
C
330
0
100
AcDbDictionary
  3
ACAD_GROUP
350
D
  3
ACAD_LAYOUT
350
1A
  3
ACAD_MATERIAL
350
3B
  3
ACAD_MLEADERSTYLE
350
178
  3
ACAD_MLINESTYLE
350
17
  3
ACAD_PLOTSETTINGS
350
19
  3
ACAD_SCALELIST
350
69
  3
ACAD_VISUALSTYLE
350
2A
  3
ACAD_WIPEOUT_VARS
350
3F
  3
ACDBHEADERROUNDTRIPXREC
350
156
  3
ACDBVARIABLEDICTIONARY
350
176
  0
DICTIONARY
  5
D
102
{ACAD_REACTORS
330
C
102
}
330
C
100
AcDbDictionary
  0
DICTIONARY
  5
1A
102
{ACAD_REACTORS
330
C
102
}
330
C
100
AcDbDictionary
  0
DICTIONARY
  5
3B
102
{ACAD_REACTORS
330
C
102
}
330
C
100
AcDbDictionary
  3
BYBLOCK
350
3D
  3
BYLAYER
350
3C
  3
GLOBAL
350
3E
  0
DICTIONARY
  5
178
102
{ACAD_REACTORS
330
C
102
}
330
C
100
AcDbDictionary
  0
DICTIONARY
  5
17
102
{ACAD_REACTORS
330
C
102
}
330
C
100
AcDbDictionary
  3
STANDARD
350
18
  0
DICTIONARY
  5
19
102
{ACAD_REACTORS
330
C
102
}
330
C
100
AcDbDictionary
  0
DICTIONARY
  5
69
102
{ACAD_REACTORS
330
C
102
}
330
C
100
AcDbDictionary
  3
A0
350
6A
  3
A1
350
6B
  3
A2
350
6C
  3
A3
350
6D
  3
A4
350
6E
  3
A5
350
6F
  3
A6
350
70
  3
A7
350
71
  3
A8
350
72
  3
A9
350
73
  3
B0
350
74
  3
B1
350
75
  3
B2
350
76
  3
B3
350
77
  3
B4
350
78
  3
B5
350
79
  3
B6
350
7A
  3
B7
350
7B
  3
B8
350
7C
  3
B9
350
7D
  3
C0
350
7E
  3
C1
350
7F
  3
C2
350
80
  3
C3
350
81
  3
C4
350
82
  3
C5
350
83
  3
C6
350
84
  3
C7
350
85
  3
C8
350
86
  3
C9
350
87
  3
D0
350
88
  3
D1
350
89
  3
D2
350
8A
  0
DICTIONARY
  5
2A
102
{ACAD_REACTORS
330
C
102
}
330
C
100
AcDbDictionary
  3
2DWIREFRAME
350
2F
  3
3D_HIDDEN
350
31
  3
3DWIREFRAME
350
30
  3
BASIC
350
32
  3
BRIGHTEN
350
36
  3
COLORCHANGE
350
3A
  3
CONCEPTUAL
350
34
  3
DIM
350
35
  3
FACEPATTERN
350
39
  3
FLAT
350
2B
  3
FLATWITHEDGES
350
2C
  3
GOURAUD
350
2D
  3
GOURAUDWITHEDGES
350
2E
  3
LINEPATTERN
350
38
  3
REALISTIC
350
33
  3
THICKEN
350
37
  0
WIPEOUTVARIABLES
  5
3F
102
{ACAD_REACTORS
330
C
102
}
330
C
100
AcDbWipeoutVariables
 70
     0
  0
DICTIONARY
  5
156
102
{ACAD_REACTORS
330
C
102
}
330
C
100
AcDbDictionary
  3
CEPSNTYPE
350
15F
  3
DIMSTYLEDATA
350
175
  3
FINGERPRINTGUID
350
160
  3
HYPERLINKBASE
350
159
  3
INSUNITS
350
15E
  3
LAYOUTDICT
350
15B
  3
LWETCUNION
350
15D
  3
PLOTSETDICT
350
15C
  3
PSVPSCALE
350
162
  3
PUCSBASE
350
165
  3
PUCSORGBACK
350
16B
  3
PUCSORGBOTTOM
350
167
  3
PUCSORGFRONT
350
16A
  3
PUCSORGLEFT
350
168
  3
PUCSORGRIGHT
350
169
  3
PUCSORGTOP
350
166
  3
PUCSORTHOREF
350
163
  3
PUCSORTHOVIEW
350
164
  3
STYLESHEET
350
15A
  3
TSTACKALIGN
350
157
  3
TSTACKSIZE
350
158
  3
UCSBASE
350
16E
  3
UCSORGBACK
350
174
  3
UCSORGBOTTOM
350
170
  3
UCSORGFRONT
350
173
  3
UCSORGLEFT
350
171
  3
UCSORGRIGHT
350
172
  3
UCSORGTOP
350
16F
  3
UCSORTHOREF
350
16C
  3
UCSORTHOVIEW
350
16D
  3
VERSIONGUID
350
161
  0
DICTIONARY
  5
176
102
{ACAD_REACTORS
330
C
102
}
330
C
100
AcDbDictionary
  3
CANNOSCALE
350
179
  3
DIMASSOC
350
17A
  3
HIDETEXT
350
17B
  0
MATERIAL
  5
3D
102
{ACAD_REACTORS
330
3B
102
}
102
{ACAD_XDICTIONARY
360
17E
102
}
330
3B
100
AcDbMaterial
  1
ByBlock
  0
MATERIAL
  5
3C
102
{ACAD_REACTORS
330
3B
102
}
102
{ACAD_XDICTIONARY
360
17C
102
}
330
3B
100
AcDbMaterial
  1
ByLayer
  0
MATERIAL
  5
3E
102
{ACAD_REACTORS
330
3B
102
}
102
{ACAD_XDICTIONARY
360
180
102
}
330
3B
100
AcDbMaterial
  1
Global
  0
MLINESTYLE
  5
18
102
{ACAD_REACTORS
330
17
102
}
330
17
100
AcDbMlineStyle
  2
Standard
 70
     0
  3

 62
   256
 51
90.0
 52
90.0
 71
     2
 49
0.5
 62
   256
  6
BYLAYER
 49
-0.5
 62
   256
  6
BYLAYER
  0
ACAD_PROXY_OBJECT
  5
6A
102
{ACAD_REACTORS
330
69
102
}
330
69
100
AcDbProxyObject
 90
      499
 91
      504
 93
       41
310
903313A31580
  0
ACAD_PROXY_OBJECT
  5
6B
102
{ACAD_REACTORS
330
69
102
}
330
69
100
AcDbProxyObject
 90
      499
 91
      504
 93
      105
310
903313A324000000000000004000
  0
ACAD_PROXY_OBJECT
  5
6C
102
{ACAD_REACTORS
330
69
102
}
330
69
100
AcDbProxyObject
 90
      499
 91
      504
 93
      105
310
903313A344000000000000104000
  0
ACAD_PROXY_OBJECT
  5
6D
102
{ACAD_REACTORS
330
69
102
}
330
69
100
AcDbProxyObject
 90
      499
 91
      504
 93
      105
310
903313A354000000000000144000
  0
ACAD_PROXY_OBJECT
  5
6E
102
{ACAD_REACTORS
330
69
102
}
330
69
100
AcDbProxyObject
 90
      499
 91
      504
 93
      105
310
903313A384000000000000204000
  0
ACAD_PROXY_OBJECT
  5
6F
102
{ACAD_REACTORS
330
69
102
}
330
69
100
AcDbProxyObject
 90
      499
 91
      504
 93
      113
310
904313A31304000000000000244000
  0
ACAD_PROXY_OBJECT
  5
70
102
{ACAD_REACTORS
330
69
102
}
330
69
100
AcDbProxyObject
 90
      499
 91
      504
 93
      113
310
904313A31364000000000000304000
  0
ACAD_PROXY_OBJECT
  5
71
102
{ACAD_REACTORS
330
69
102
}
330
69
100
AcDbProxyObject
 90
      499
 91
      504
 93
      113
310
904313A32304000000000000344000
  0
ACAD_PROXY_OBJECT
  5
72
102
{ACAD_REACTORS
330
69
102
}
330
69
100
AcDbProxyObject
 90
      499
 91
      504
 93
      113
310
904313A333040000000000003E4000
  0
ACAD_PROXY_OBJECT
  5
73
102
{ACAD_REACTORS
330
69
102
}
330
69
100
AcDbProxyObject
 90
      499
 91
      504
 93
      113
310
904313A34304000000000000444000
  0
ACAD_PROXY_OBJECT
  5
74
102
{ACAD_REACTORS
330
69
102
}
330
69
100
AcDbProxyObject
 90
      499
 91
      504
 93
      113
310
904313A35304000000000000494000
  0
ACAD_PROXY_OBJECT
  5
75
102
{ACAD_REACTORS
330
69
102
}
330
69
100
AcDbProxyObject
 90
      499
 91
      504
 93
      121
310
905313A3130304000000000000594000
  0
ACAD_PROXY_OBJECT
  5
76
102
{ACAD_REACTORS
330
69
102
}
330
69
100
AcDbProxyObject
 90
      499
 91
      504
 93
      105
310
903323A310000000000000010100
  0
ACAD_PROXY_OBJECT
  5
77
102
{ACAD_REACTORS
330
69
102
}
330
69
100
AcDbProxyObject
 90
      499
 91
      504
 93
      105
310
903343A310000000000000410100
  0
ACAD_PROXY_OBJECT
  5
78
102
{ACAD_REACTORS
330
69
102
}
330
69
100
AcDbProxyObject
 90
      499
 91
      504
 93
      105
310
903383A310000000000000810100
  0
ACAD_PROXY_OBJECT
  5
79
102
{ACAD_REACTORS
330
69
102
}
330
69
100
AcDbProxyObject
 90
      499
 91
      504
 93
      113
310
90431303A310000000000000910100
  0
ACAD_PROXY_OBJECT
  5
7A
102
{ACAD_REACTORS
330
69
102
}
330
69
100
AcDbProxyObject
 90
      499
 91
      504
 93
      121
310
9053130303A310000000000001650100
  0
ACAD_PROXY_OBJECT
  5
7B
102
{ACAD_REACTORS
330
69
102
}
330
69
100
AcDbProxyObject
 90
      499
 91
      504
 93
      257
310
90E312F31323822203D2031272D3022000000000000200FC000000000000284000
  0
ACAD_PROXY_OBJECT
  5
7C
102
{ACAD_REACTORS
330
69
102
}
330
69
100
AcDbProxyObject
 90
      499
 91
      504
 93
      249
310
90D312F363422203D2031272D3022000000000000240FC000000000000284000
  0
ACAD_PROXY_OBJECT
  5
7D
102
{ACAD_REACTORS
330
69
102
}
330
69
100
AcDbProxyObject
 90
      499
 91
      504
 93
      249
310
90D312F333222203D2031272D3022000000000000280FC000000000000284000
  0
ACAD_PROXY_OBJECT
  5
7E
102
{ACAD_REACTORS
330
69
102
}
330
69
100
AcDbProxyObject
 90
      499
 91
      504
 93
      249
310
90D312F313622203D2031272D30220000000000002C0FC000000000000284000
  0
ACAD_PROXY_OBJECT
  5
7F
102
{ACAD_REACTORS
330
69
102
}
330
69
100
AcDbProxyObject
 90
      499
 91
      504
 93
      249
310
90D332F333222203D2031272D30220000000000002E0FC000000000000284000
  0
ACAD_PROXY_OBJECT
  5
80
102
{ACAD_REACTORS
330
69
102
}
330
69
100
AcDbProxyObject
 90
      499
 91
      504
 93
      241
310
90C312F3822203D2031272D3022000000000000300FC000000000000284000
  0
ACAD_PROXY_OBJECT
  5
81
102
{ACAD_REACTORS
330
69
102
}
330
69
100
AcDbProxyObject
 90
      499
 91
      504
 93
      249
310
90D332F313622203D2031272D3022000000000000320FC000000000000284000
  0
ACAD_PROXY_OBJECT
  5
82
102
{ACAD_REACTORS
330
69
102
}
330
69
100
AcDbProxyObject
 90
      499
 91
      504
 93
      241
310
90C312F3422203D2031272D3022000000000000340FC000000000000284000
  0
ACAD_PROXY_OBJECT
  5
83
102
{ACAD_REACTORS
330
69
102
}
330
69
100
AcDbProxyObject
 90
      499
 91
      504
 93
      241
310
90C332F3822203D2031272D3022000000000000360FC000000000000284000
  0
ACAD_PROXY_OBJECT
  5
84
102
{ACAD_REACTORS
330
69
102
}
330
69
100
AcDbProxyObject
 90
      499
 91
      504
 93
      241
310
90C312F3222203D2031272D3022000000000000380FC000000000000284000
  0
ACAD_PROXY_OBJECT
  5
85
102
{ACAD_REACTORS
330
69
102
}
330
69
100
AcDbProxyObject
 90
      499
 91
      504
 93
      241
310
90C332F3422203D2031272D30220000000000003A0FC000000000000284000
  0
ACAD_PROXY_OBJECT
  5
86
102
{ACAD_REACTORS
330
69
102
}
330
69
100
AcDbProxyObject
 90
      499
 91
      504
 93
      161
310
90A3122203D2031272D30224000000000000284000
  0
ACAD_PROXY_OBJECT
  5
87
102
{ACAD_REACTORS
330
69
102
}
330
69
100
AcDbProxyObject
 90
      499
 91
      504
 93
      257
310
90E312D312F3222203D2031272D30220000000000003E0FC000000000000284000
  0
ACAD_PROXY_OBJECT
  5
88
102
{ACAD_REACTORS
330
69
102
}
330
69
100
AcDbProxyObject
 90
      499
 91
      504
 93
      225
310
90A3322203D2031272D302200000000000002100000000000000284000
  0
ACAD_PROXY_OBJECT
  5
89
102
{ACAD_REACTORS
330
69
102
}
330
69
100
AcDbProxyObject
 90
      499
 91
      504
 93
      225
310
90A3622203D2031272D302200000000000006100000000000000284000
  0
ACAD_PROXY_OBJECT
  5
8A
102
{ACAD_REACTORS
330
69
102
}
330
69
100
AcDbProxyObject
 90
      499
 91
      504
 93
      249
310
90D31272D3022203D2031272D30220000000000000A100000000000000284000
  0
ACAD_PROXY_OBJECT
  5
2F
102
{ACAD_REACTORS
330
2A
102
}
330
2A
100
AcDbProxyObject
 90
      499
 91
      501
 93
      436
310
42CC9915DA5C99599C985B595049028333333333333E3BF0000000000000FB0107901411070040501600405405064090741402480A0340
1001
ACAD
1000
AcDbSavedByObjectVersion
1070
     0
  0
ACAD_PROXY_OBJECT
  5
31
102
{ACAD_REACTORS
330
2A
102
}
330
2A
100
AcDbProxyObject
 90
      499
 91
      501
 93
      500
310
424CD108121A5919195B90640502408333333333333E3BF0000000000000FB01079024090700405020000000000001110200405405064090740C02480A0340
1001
ACAD
1000
AcDbSavedByObjectVersion
1070
     0
  0
ACAD_PROXY_OBJECT
  5
30
102
{ACAD_REACTORS
330
2A
102
}
330
2A
100
AcDbProxyObject
 90
      499
 91
      501
 93
      436
310
42CCD915DA5C99599C985B595059028333333333333E3BF0000000000000FB0107901411070040501600405405064090741402480A0340
1001
ACAD
1000
AcDbSavedByObjectVersion
1070
     0
  0
ACAD_PROXY_OBJECT
  5
32
102
{ACAD_REACTORS
330
2A
102
}
330
2A
100
AcDbProxyObject
 90
      499
 91
      501
 93
      388
310
4150985CDA58D07406404333333333333E3BF0000000000000FB0107A41107004050150841D405064090741402480A0350
1001
ACAD
1000
AcDbSavedByObjectVersion
1070
     0
  0
ACAD_PROXY_OBJECT
  5
36
102
{ACAD_REACTORS
330
2A
102
}
330
2A
100
AcDbProxyObject
 90
      499
 91
      501
 93
      428
310
42109C9A59DA1D195B90C409028333333333333E3BF0000000000000FB010790141107004050150841D405064090741402480A029950
1001
ACAD
1000
AcDbSavedByObjectVersion
1070
     0
  0
ACAD_PROXY_OBJECT
  5
3A
102
{ACAD_REACTORS
330
2A
102
}
330
2A
100
AcDbProxyObject
 90
      499
 91
      501
 93
      452
310
42D0DBDB1BDC90DA185B99D95104090240C333333333333E3BF0000000000000FB0108901411070040501508421405064090741402480A0350
1001
ACAD
1000
AcDbSavedByObjectVersion
1070
     0
  0
ACAD_PROXY_OBJECT
  5
34
102
{ACAD_REACTORS
330
2A
102
}
330
2A
100
AcDbProxyObject
 90
      499
 91
      501
 93
      500
310
4290DBDB98D95C1D1D585B10940D028333333333333E3BF0000000000000FB0107902409070040501000000000000111010841D405064090740C02480A0340
1001
ACAD
1000
AcDbSavedByObjectVersion
1070
     0
  0
ACAD_PROXY_OBJECT
  5
35
102
{ACAD_REACTORS
330
2A
102
}
330
2A
100
AcDbProxyObject
 90
      499
 91
      501
 93
      412
310
40D11A5B50B409028333333333333E3BF0000000000000FB010790141107004050150841D405064090741402480A02677FFFFFD0
1001
ACAD
1000
AcDbSavedByObjectVersion
1070
     0
  0
ACAD_PROXY_OBJECT
  5
39
102
{ACAD_REACTORS
330
2A
102
}
330
2A
100
AcDbProxyObject
 90
      499
 91
      501
 93
      444
310
42D19858D95C185D1D195C9B90F409028333333333333E3BF0000000000000FB010790141107004050150841D405064090741402480A0350
1001
ACAD
1000
AcDbSavedByObjectVersion
1070
     0
  0
ACAD_PROXY_OBJECT
  5
2B
102
{ACAD_REACTORS
330
2A
102
}
330
2A
100
AcDbProxyObject
 90
      499
 91
      501
 93
      388
310
41119B185D240901404333333333333E3BF0000000000000F9010740A41107004050150841D405064090741402480A1B50
1001
ACAD
1000
AcDbSavedByObjectVersion
1070
     0
  0
ACAD_PROXY_OBJECT
  5
2C
102
{ACAD_REACTORS
330
2A
102
}
330
2A
100
AcDbProxyObject
 90
      499
 91
      501
 93
      476
310
43519B185D15DA5D1A115919D95CD0140901404333333333333E3BF0000000000000F9010740901411070040501600405405064090741402480A1B50
1001
ACAD
1000
AcDbSavedByObjectVersion
1070
     0
  0
ACAD_PROXY_OBJECT
  5
2D
102
{ACAD_REACTORS
330
2A
102
}
330
2A
100
AcDbProxyObject
 90
      499
 91
      501
 93
      412
310
41D1DBDD5C985D5910240902404333333333333E3BF0000000000000F9010740A411070040501641D405064090741402480A1B50
1001
ACAD
1000
AcDbSavedByObjectVersion
1070
     0
  0
ACAD_PROXY_OBJECT
  5
2E
102
{ACAD_REACTORS
330
2A
102
}
330
2A
100
AcDbProxyObject
 90
      499
 91
      501
 93
      500
310
4411DBDD5C985D5915DA5D1A115919D95CD0340902404333333333333E3BF0000000000000F9010740901411070040501600405405064090741402480A1B50
1001
ACAD
1000
AcDbSavedByObjectVersion
1070
     0
  0
ACAD_PROXY_OBJECT
  5
38
102
{ACAD_REACTORS
330
2A
102
}
330
2A
100
AcDbProxyObject
 90
      499
 91
      501
 93
      444
310
42D31A5B995C185D1D195C9B90E409028333333333333E3BF0000000000000FB010790141107004050750841D405064090741402483A0350
1001
ACAD
1000
AcDbSavedByObjectVersion
1070
     0
  0
ACAD_PROXY_OBJECT
  5
33
102
{ACAD_REACTORS
330
2A
102
}
330
2A
100
AcDbProxyObject
 90
      499
 91
      501
 93
      420
310
425499585B1A5CDD1A58D08409028333333333333E3BF0000000000000FB01079019070040501508421405064090741402480A1B40
1001
ACAD
1000
AcDbSavedByObjectVersion
1070
     0
  0
ACAD_PROXY_OBJECT
  5
37
102
{ACAD_REACTORS
330
2A
102
}
330
2A
100
AcDbProxyObject
 90
      499
 91
      501
 93
      412
310
41D51A1A58DAD95B90D409028333333333333E3BF0000000000000FB010790141107004050150C41D405064090741402480A0350
1001
ACAD
1000
AcDbSavedByObjectVersion
1070
     0
  0
XRECORD
  5
15F
102
{ACAD_REACTORS
330
156
102
}
330
156
100
AcDbXrecord
 90
        0
  0
XRECORD
  5
175
102
{ACAD_REACTORS
330
156
102
}
330
156
100
AcDbXrecord
1000
DSTYLE
1002
{
1070
   179
 70
     1
1070
    41
 40
0.1
1070
    79
 70
     3
1070
   342
340
40
1070
   271
 70
     1
1070
    46
 40
0.1
1070
    44
 40
0.1
1070
    42
 40
0.2
1070
    77
 70
     1
1070
    73
 70
     0
1070
    74
 70
     0
1070
   340
340
11
1070
    78
 70
     8
1002
}
  0
XRECORD
  5
160
102
{ACAD_REACTORS
330
156
102
}
330
156
100
AcDbXrecord
  1
{C38F9D11-1FD6-4202-965E-EEB250C95156}
  0
XRECORD
  5
159
102
{ACAD_REACTORS
330
156
102
}
330
156
100
AcDbXrecord
  1

  0
XRECORD
  5
15E
102
{ACAD_REACTORS
330
156
102
}
330
156
100
AcDbXrecord
 90
        4
  0
XRECORD
  5
15B
102
{ACAD_REACTORS
330
156
102
}
330
156
100
AcDbXrecord
340
1A
  0
XRECORD
  5
15D
102
{ACAD_REACTORS
330
156
102
}
330
156
100
AcDbXrecord
 90
    10781
  0
XRECORD
  5
15C
102
{ACAD_REACTORS
330
156
102
}
330
156
100
AcDbXrecord
340
19
  0
XRECORD
  5
162
102
{ACAD_REACTORS
330
156
102
}
330
156
100
AcDbXrecord
 40
0.0
  0
XRECORD
  5
165
102
{ACAD_REACTORS
330
156
102
}
330
156
100
AcDbXrecord
340
0
  0
XRECORD
  5
16B
102
{ACAD_REACTORS
330
156
102
}
330
156
100
AcDbXrecord
 10
0.0
 20
0.0
 30
0.0
  0
XRECORD
  5
167
102
{ACAD_REACTORS
330
156
102
}
330
156
100
AcDbXrecord
 10
0.0
 20
0.0
 30
0.0
  0
XRECORD
  5
16A
102
{ACAD_REACTORS
330
156
102
}
330
156
100
AcDbXrecord
 10
0.0
 20
0.0
 30
0.0
  0
XRECORD
  5
168
102
{ACAD_REACTORS
330
156
102
}
330
156
100
AcDbXrecord
 10
0.0
 20
0.0
 30
0.0
  0
XRECORD
  5
169
102
{ACAD_REACTORS
330
156
102
}
330
156
100
AcDbXrecord
 10
0.0
 20
0.0
 30
0.0
  0
XRECORD
  5
166
102
{ACAD_REACTORS
330
156
102
}
330
156
100
AcDbXrecord
 10
0.0
 20
0.0
 30
0.0
  0
XRECORD
  5
163
102
{ACAD_REACTORS
330
156
102
}
330
156
100
AcDbXrecord
340
0
  0
XRECORD
  5
164
102
{ACAD_REACTORS
330
156
102
}
330
156
100
AcDbXrecord
 70
     0
  0
XRECORD
  5
15A
102
{ACAD_REACTORS
330
156
102
}
330
156
100
AcDbXrecord
  1

  0
XRECORD
  5
157
102
{ACAD_REACTORS
330
156
102
}
330
156
100
AcDbXrecord
 90
        1
  0
XRECORD
  5
158
102
{ACAD_REACTORS
330
156
102
}
330
156
100
AcDbXrecord
 90
       70
  0
XRECORD
  5
16E
102
{ACAD_REACTORS
330
156
102
}
330
156
100
AcDbXrecord
340
0
  0
XRECORD
  5
174
102
{ACAD_REACTORS
330
156
102
}
330
156
100
AcDbXrecord
 10
0.0
 20
0.0
 30
0.0
  0
XRECORD
  5
170
102
{ACAD_REACTORS
330
156
102
}
330
156
100
AcDbXrecord
 10
0.0
 20
0.0
 30
0.0
  0
XRECORD
  5
173
102
{ACAD_REACTORS
330
156
102
}
330
156
100
AcDbXrecord
 10
0.0
 20
0.0
 30
0.0
  0
XRECORD
  5
171
102
{ACAD_REACTORS
330
156
102
}
330
156
100
AcDbXrecord
 10
0.0
 20
0.0
 30
0.0
  0
XRECORD
  5
172
102
{ACAD_REACTORS
330
156
102
}
330
156
100
AcDbXrecord
 10
0.0
 20
0.0
 30
0.0
  0
XRECORD
  5
16F
102
{ACAD_REACTORS
330
156
102
}
330
156
100
AcDbXrecord
 10
0.0
 20
0.0
 30
0.0
  0
XRECORD
  5
16C
102
{ACAD_REACTORS
330
156
102
}
330
156
100
AcDbXrecord
340
0
  0
XRECORD
  5
16D
102
{ACAD_REACTORS
330
156
102
}
330
156
100
AcDbXrecord
 70
     0
  0
XRECORD
  5
161
102
{ACAD_REACTORS
330
156
102
}
330
156
100
AcDbXrecord
  1
{FAEB1C32-E019-11D5-929B-00C0DF256EC4}
  0
DICTIONARYVAR
  5
179
102
{ACAD_REACTORS
330
176
102
}
330
176
100
DictionaryVariables
280
     0
  1
1:1
  0
DICTIONARYVAR
  5
17A
102
{ACAD_REACTORS
330
176
102
}
330
176
100
DictionaryVariables
280
     0
  1
2
  0
DICTIONARYVAR
  5
17B
102
{ACAD_REACTORS
330
176
102
}
330
176
100
DictionaryVariables
280
     0
  1
1
  0
DICTIONARY
  5
17E
330
3D
100
AcDbDictionary
280
     1
  3
ACAD_XREC_ROUNDTRIP
360
17F
  0
DICTIONARY
  5
17C
330
3C
100
AcDbDictionary
280
     1
  3
ACAD_XREC_ROUNDTRIP
360
17D
  0
DICTIONARY
  5
180
330
3E
100
AcDbDictionary
280
     1
  3
ACAD_XREC_ROUNDTRIP
360
181
  0
XRECORD
  5
17F
102
{ACAD_REACTORS
330
17E
102
}
330
17E
100
AcDbXrecord
102
MATERIAL
148
0.0
149
0.0
149
0.0
 93
        0
 94
      127
282
     0
 72
     1
 77
     1
171
     1
175
     1
179
     1
273
     0
  0
XRECORD
  5
17D
102
{ACAD_REACTORS
330
17C
102
}
330
17C
100
AcDbXrecord
102
MATERIAL
148
0.0
149
0.0
149
0.0
 93
        0
 94
      127
282
     0
 72
     1
 77
     1
171
     1
175
     1
179
     1
273
     0
  0
XRECORD
  5
181
102
{ACAD_REACTORS
330
180
102
}
330
180
100
AcDbXrecord
102
MATERIAL
148
0.0
149
0.0
149
0.0
 93
        0
 94
      127
282
     0
 72
     1
 77
     1
171
     1
175
     1
179
     1
273
     0
  0
ENDSEC
  0
EOF
